<?xml version="1.0" encoding="utf-8" standalone="no"?>
<!DOCTYPE svg PUBLIC "-//W3C//DTD SVG 1.1//EN"
  "http://www.w3.org/Graphics/SVG/1.1/DTD/svg11.dtd">
<svg xmlns:xlink="http://www.w3.org/1999/xlink" width="576pt" height="432pt" viewBox="0 0 576 432" xmlns="http://www.w3.org/2000/svg" version="1.1">
 <metadata>
  <rdf:RDF xmlns:dc="http://purl.org/dc/elements/1.1/" xmlns:cc="http://creativecommons.org/ns#" xmlns:rdf="http://www.w3.org/1999/02/22-rdf-syntax-ns#">
   <cc:Work>
    <dc:type rdf:resource="http://purl.org/dc/dcmitype/StillImage"/>
    <dc:date>2024-08-02T13:11:45.172973</dc:date>
    <dc:format>image/svg+xml</dc:format>
    <dc:creator>
     <cc:Agent>
      <dc:title>Matplotlib v3.9.0, https://matplotlib.org/</dc:title>
     </cc:Agent>
    </dc:creator>
   </cc:Work>
  </rdf:RDF>
 </metadata>
 <defs>
  <style type="text/css">*{stroke-linejoin: round; stroke-linecap: butt}</style>
 </defs>
 <g id="figure_1">
  <g id="patch_1">
   <path d="M 0 432 
L 576 432 
L 576 0 
L 0 0 
z
" style="fill: #ffffff"/>
  </g>
  <g id="axes_1">
   <g id="patch_2">
    <path d="M 70.67 372.76 
L 565.2 372.76 
L 565.2 10.8 
L 70.67 10.8 
z
" style="fill: #ffffff"/>
   </g>
   <g id="matplotlib.axis_1">
    <g id="xtick_1">
     <g id="line2d_1">
      <defs>
       <path id="mda2670dee2" d="M 0 0 
L 0 3.5 
" style="stroke: #000000; stroke-width: 0.8"/>
      </defs>
      <g>
       <use xlink:href="#mda2670dee2" x="72.881682" y="372.76" style="stroke: #000000; stroke-width: 0.8"/>
      </g>
     </g>
     <g id="text_1">
      <!-- 0 -->
      <g transform="translate(67.155432 393.437187) scale(0.18 -0.18)">
       <defs>
        <path id="DejaVuSans-30" d="M 2034 4250 
Q 1547 4250 1301 3770 
Q 1056 3291 1056 2328 
Q 1056 1369 1301 889 
Q 1547 409 2034 409 
Q 2525 409 2770 889 
Q 3016 1369 3016 2328 
Q 3016 3291 2770 3770 
Q 2525 4250 2034 4250 
z
M 2034 4750 
Q 2819 4750 3233 4129 
Q 3647 3509 3647 2328 
Q 3647 1150 3233 529 
Q 2819 -91 2034 -91 
Q 1250 -91 836 529 
Q 422 1150 422 2328 
Q 422 3509 836 4129 
Q 1250 4750 2034 4750 
z
" transform="scale(0.015625)"/>
       </defs>
       <use xlink:href="#DejaVuSans-30"/>
      </g>
     </g>
    </g>
    <g id="xtick_2">
     <g id="line2d_2">
      <g>
       <use xlink:href="#mda2670dee2" x="130.933844" y="372.76" style="stroke: #000000; stroke-width: 0.8"/>
      </g>
     </g>
     <g id="text_2">
      <!-- 20 -->
      <g transform="translate(119.481344 393.437187) scale(0.18 -0.18)">
       <defs>
        <path id="DejaVuSans-32" d="M 1228 531 
L 3431 531 
L 3431 0 
L 469 0 
L 469 531 
Q 828 903 1448 1529 
Q 2069 2156 2228 2338 
Q 2531 2678 2651 2914 
Q 2772 3150 2772 3378 
Q 2772 3750 2511 3984 
Q 2250 4219 1831 4219 
Q 1534 4219 1204 4116 
Q 875 4013 500 3803 
L 500 4441 
Q 881 4594 1212 4672 
Q 1544 4750 1819 4750 
Q 2544 4750 2975 4387 
Q 3406 4025 3406 3419 
Q 3406 3131 3298 2873 
Q 3191 2616 2906 2266 
Q 2828 2175 2409 1742 
Q 1991 1309 1228 531 
z
" transform="scale(0.015625)"/>
       </defs>
       <use xlink:href="#DejaVuSans-32"/>
       <use xlink:href="#DejaVuSans-30" x="63.623047"/>
      </g>
     </g>
    </g>
    <g id="xtick_3">
     <g id="line2d_3">
      <g>
       <use xlink:href="#mda2670dee2" x="188.986005" y="372.76" style="stroke: #000000; stroke-width: 0.8"/>
      </g>
     </g>
     <g id="text_3">
      <!-- 40 -->
      <g transform="translate(177.533505 393.437187) scale(0.18 -0.18)">
       <defs>
        <path id="DejaVuSans-34" d="M 2419 4116 
L 825 1625 
L 2419 1625 
L 2419 4116 
z
M 2253 4666 
L 3047 4666 
L 3047 1625 
L 3713 1625 
L 3713 1100 
L 3047 1100 
L 3047 0 
L 2419 0 
L 2419 1100 
L 313 1100 
L 313 1709 
L 2253 4666 
z
" transform="scale(0.015625)"/>
       </defs>
       <use xlink:href="#DejaVuSans-34"/>
       <use xlink:href="#DejaVuSans-30" x="63.623047"/>
      </g>
     </g>
    </g>
    <g id="xtick_4">
     <g id="line2d_4">
      <g>
       <use xlink:href="#mda2670dee2" x="247.038166" y="372.76" style="stroke: #000000; stroke-width: 0.8"/>
      </g>
     </g>
     <g id="text_4">
      <!-- 60 -->
      <g transform="translate(235.585666 393.437187) scale(0.18 -0.18)">
       <defs>
        <path id="DejaVuSans-36" d="M 2113 2584 
Q 1688 2584 1439 2293 
Q 1191 2003 1191 1497 
Q 1191 994 1439 701 
Q 1688 409 2113 409 
Q 2538 409 2786 701 
Q 3034 994 3034 1497 
Q 3034 2003 2786 2293 
Q 2538 2584 2113 2584 
z
M 3366 4563 
L 3366 3988 
Q 3128 4100 2886 4159 
Q 2644 4219 2406 4219 
Q 1781 4219 1451 3797 
Q 1122 3375 1075 2522 
Q 1259 2794 1537 2939 
Q 1816 3084 2150 3084 
Q 2853 3084 3261 2657 
Q 3669 2231 3669 1497 
Q 3669 778 3244 343 
Q 2819 -91 2113 -91 
Q 1303 -91 875 529 
Q 447 1150 447 2328 
Q 447 3434 972 4092 
Q 1497 4750 2381 4750 
Q 2619 4750 2861 4703 
Q 3103 4656 3366 4563 
z
" transform="scale(0.015625)"/>
       </defs>
       <use xlink:href="#DejaVuSans-36"/>
       <use xlink:href="#DejaVuSans-30" x="63.623047"/>
      </g>
     </g>
    </g>
    <g id="xtick_5">
     <g id="line2d_5">
      <g>
       <use xlink:href="#mda2670dee2" x="305.090327" y="372.76" style="stroke: #000000; stroke-width: 0.8"/>
      </g>
     </g>
     <g id="text_5">
      <!-- 80 -->
      <g transform="translate(293.637827 393.437187) scale(0.18 -0.18)">
       <defs>
        <path id="DejaVuSans-38" d="M 2034 2216 
Q 1584 2216 1326 1975 
Q 1069 1734 1069 1313 
Q 1069 891 1326 650 
Q 1584 409 2034 409 
Q 2484 409 2743 651 
Q 3003 894 3003 1313 
Q 3003 1734 2745 1975 
Q 2488 2216 2034 2216 
z
M 1403 2484 
Q 997 2584 770 2862 
Q 544 3141 544 3541 
Q 544 4100 942 4425 
Q 1341 4750 2034 4750 
Q 2731 4750 3128 4425 
Q 3525 4100 3525 3541 
Q 3525 3141 3298 2862 
Q 3072 2584 2669 2484 
Q 3125 2378 3379 2068 
Q 3634 1759 3634 1313 
Q 3634 634 3220 271 
Q 2806 -91 2034 -91 
Q 1263 -91 848 271 
Q 434 634 434 1313 
Q 434 1759 690 2068 
Q 947 2378 1403 2484 
z
M 1172 3481 
Q 1172 3119 1398 2916 
Q 1625 2713 2034 2713 
Q 2441 2713 2670 2916 
Q 2900 3119 2900 3481 
Q 2900 3844 2670 4047 
Q 2441 4250 2034 4250 
Q 1625 4250 1398 4047 
Q 1172 3844 1172 3481 
z
" transform="scale(0.015625)"/>
       </defs>
       <use xlink:href="#DejaVuSans-38"/>
       <use xlink:href="#DejaVuSans-30" x="63.623047"/>
      </g>
     </g>
    </g>
    <g id="xtick_6">
     <g id="line2d_6">
      <g>
       <use xlink:href="#mda2670dee2" x="363.142489" y="372.76" style="stroke: #000000; stroke-width: 0.8"/>
      </g>
     </g>
     <g id="text_6">
      <!-- 100 -->
      <g transform="translate(345.963739 393.437187) scale(0.18 -0.18)">
       <defs>
        <path id="DejaVuSans-31" d="M 794 531 
L 1825 531 
L 1825 4091 
L 703 3866 
L 703 4441 
L 1819 4666 
L 2450 4666 
L 2450 531 
L 3481 531 
L 3481 0 
L 794 0 
L 794 531 
z
" transform="scale(0.015625)"/>
       </defs>
       <use xlink:href="#DejaVuSans-31"/>
       <use xlink:href="#DejaVuSans-30" x="63.623047"/>
       <use xlink:href="#DejaVuSans-30" x="127.246094"/>
      </g>
     </g>
    </g>
    <g id="xtick_7">
     <g id="line2d_7">
      <g>
       <use xlink:href="#mda2670dee2" x="421.19465" y="372.76" style="stroke: #000000; stroke-width: 0.8"/>
      </g>
     </g>
     <g id="text_7">
      <!-- 120 -->
      <g transform="translate(404.0159 393.437187) scale(0.18 -0.18)">
       <use xlink:href="#DejaVuSans-31"/>
       <use xlink:href="#DejaVuSans-32" x="63.623047"/>
       <use xlink:href="#DejaVuSans-30" x="127.246094"/>
      </g>
     </g>
    </g>
    <g id="xtick_8">
     <g id="line2d_8">
      <g>
       <use xlink:href="#mda2670dee2" x="479.246811" y="372.76" style="stroke: #000000; stroke-width: 0.8"/>
      </g>
     </g>
     <g id="text_8">
      <!-- 140 -->
      <g transform="translate(462.068061 393.437187) scale(0.18 -0.18)">
       <use xlink:href="#DejaVuSans-31"/>
       <use xlink:href="#DejaVuSans-34" x="63.623047"/>
       <use xlink:href="#DejaVuSans-30" x="127.246094"/>
      </g>
     </g>
    </g>
    <g id="xtick_9">
     <g id="line2d_9">
      <g>
       <use xlink:href="#mda2670dee2" x="537.298972" y="372.76" style="stroke: #000000; stroke-width: 0.8"/>
      </g>
     </g>
     <g id="text_9">
      <!-- 160 -->
      <g transform="translate(520.120222 393.437187) scale(0.18 -0.18)">
       <use xlink:href="#DejaVuSans-31"/>
       <use xlink:href="#DejaVuSans-36" x="63.623047"/>
       <use xlink:href="#DejaVuSans-30" x="127.246094"/>
      </g>
     </g>
    </g>
    <g id="text_10">
     <!-- d (100km) -->
     <g transform="translate(265.986562 416.3775) scale(0.2 -0.2)">
      <defs>
       <path id="DejaVuSans-Oblique-64" d="M 2675 525 
Q 2444 222 2128 65 
Q 1813 -91 1428 -91 
Q 903 -91 598 267 
Q 294 625 294 1247 
Q 294 1766 478 2236 
Q 663 2706 1013 3078 
Q 1244 3325 1534 3454 
Q 1825 3584 2144 3584 
Q 2481 3584 2739 3421 
Q 2997 3259 3138 2956 
L 3513 4863 
L 4091 4863 
L 3144 0 
L 2566 0 
L 2675 525 
z
M 891 1350 
Q 891 897 1095 644 
Q 1300 391 1663 391 
Q 1931 391 2161 520 
Q 2391 650 2566 903 
Q 2750 1166 2856 1509 
Q 2963 1853 2963 2188 
Q 2963 2622 2758 2865 
Q 2553 3109 2194 3109 
Q 1922 3109 1687 2981 
Q 1453 2853 1288 2613 
Q 1106 2353 998 2009 
Q 891 1666 891 1350 
z
" transform="scale(0.015625)"/>
       <path id="DejaVuSans-Oblique-20" transform="scale(0.015625)"/>
       <path id="DejaVuSans-Oblique-28" d="M 2731 4856 
Q 1903 3822 1495 2892 
Q 1088 1963 1088 1100 
Q 1088 606 1206 120 
Q 1325 -366 1563 -844 
L 1063 -844 
Q 775 -306 634 201 
Q 494 709 494 1197 
Q 494 2125 923 3036 
Q 1353 3947 2222 4856 
L 2731 4856 
z
" transform="scale(0.015625)"/>
       <path id="DejaVuSans-Oblique-31" d="M 416 531 
L 1447 531 
L 2144 4122 
L 978 3897 
L 1088 4441 
L 2247 4666 
L 2881 4666 
L 2075 531 
L 3103 531 
L 3003 0 
L 313 0 
L 416 531 
z
" transform="scale(0.015625)"/>
       <path id="DejaVuSans-Oblique-30" d="M 2444 4750 
Q 3078 4750 3414 4328 
Q 3750 3906 3750 3116 
Q 3750 2516 3592 1923 
Q 3434 1331 3150 863 
Q 2859 394 2467 151 
Q 2075 -91 1600 -91 
Q 988 -91 653 334 
Q 319 759 319 1544 
Q 319 2138 480 2733 
Q 641 3328 928 3794 
Q 1216 4263 1602 4506 
Q 1988 4750 2444 4750 
z
M 2406 4250 
Q 2169 4250 1955 4123 
Q 1741 3997 1569 3750 
Q 1281 3338 1111 2720 
Q 941 2103 941 1453 
Q 941 938 1123 673 
Q 1306 409 1663 409 
Q 1913 409 2125 536 
Q 2338 663 2509 909 
Q 2794 1319 2961 1936 
Q 3128 2553 3128 3206 
Q 3128 3722 2945 3986 
Q 2763 4250 2406 4250 
z
" transform="scale(0.015625)"/>
       <path id="DejaVuSans-Oblique-6b" d="M 1172 4863 
L 1747 4863 
L 1197 2028 
L 3169 3500 
L 3916 3500 
L 1716 1825 
L 3322 0 
L 2625 0 
L 1131 1709 
L 800 0 
L 225 0 
L 1172 4863 
z
" transform="scale(0.015625)"/>
       <path id="DejaVuSans-Oblique-6d" d="M 5747 2113 
L 5338 0 
L 4763 0 
L 5166 2094 
Q 5191 2228 5203 2325 
Q 5216 2422 5216 2491 
Q 5216 2772 5059 2928 
Q 4903 3084 4622 3084 
Q 4203 3084 3875 2770 
Q 3547 2456 3450 1953 
L 3066 0 
L 2491 0 
L 2900 2094 
Q 2925 2209 2937 2307 
Q 2950 2406 2950 2484 
Q 2950 2769 2794 2926 
Q 2638 3084 2363 3084 
Q 1938 3084 1609 2770 
Q 1281 2456 1184 1953 
L 800 0 
L 225 0 
L 909 3500 
L 1484 3500 
L 1375 2956 
Q 1609 3263 1923 3423 
Q 2238 3584 2597 3584 
Q 2978 3584 3223 3384 
Q 3469 3184 3519 2828 
Q 3781 3197 4126 3390 
Q 4472 3584 4856 3584 
Q 5306 3584 5551 3325 
Q 5797 3066 5797 2591 
Q 5797 2488 5784 2364 
Q 5772 2241 5747 2113 
z
" transform="scale(0.015625)"/>
       <path id="DejaVuSans-Oblique-29" d="M -397 -844 
Q 434 191 840 1120 
Q 1247 2050 1247 2913 
Q 1247 3406 1130 3892 
Q 1013 4378 775 4856 
L 1275 4856 
Q 1563 4316 1703 3812 
Q 1844 3309 1844 2822 
Q 1844 1891 1411 973 
Q 978 56 116 -844 
L -397 -844 
z
" transform="scale(0.015625)"/>
      </defs>
      <use xlink:href="#DejaVuSans-Oblique-64"/>
      <use xlink:href="#DejaVuSans-Oblique-20" x="63.476562"/>
      <use xlink:href="#DejaVuSans-Oblique-28" x="95.263672"/>
      <use xlink:href="#DejaVuSans-Oblique-31" x="134.277344"/>
      <use xlink:href="#DejaVuSans-Oblique-30" x="197.900391"/>
      <use xlink:href="#DejaVuSans-Oblique-30" x="261.523438"/>
      <use xlink:href="#DejaVuSans-Oblique-6b" x="325.146484"/>
      <use xlink:href="#DejaVuSans-Oblique-6d" x="383.056641"/>
      <use xlink:href="#DejaVuSans-Oblique-29" x="480.46875"/>
     </g>
    </g>
   </g>
   <g id="matplotlib.axis_2">
    <g id="ytick_1">
     <g id="line2d_10">
      <defs>
       <path id="m0dddb371a1" d="M 0 0 
L -3.5 0 
" style="stroke: #000000; stroke-width: 0.8"/>
      </defs>
      <g>
       <use xlink:href="#m0dddb371a1" x="70.67" y="369.177496" style="stroke: #000000; stroke-width: 0.8"/>
      </g>
     </g>
     <g id="text_11">
      <!-- 0.2 -->
      <g transform="translate(35.044375 376.01609) scale(0.18 -0.18)">
       <defs>
        <path id="DejaVuSans-2e" d="M 684 794 
L 1344 794 
L 1344 0 
L 684 0 
L 684 794 
z
" transform="scale(0.015625)"/>
       </defs>
       <use xlink:href="#DejaVuSans-30"/>
       <use xlink:href="#DejaVuSans-2e" x="63.623047"/>
       <use xlink:href="#DejaVuSans-32" x="95.410156"/>
      </g>
     </g>
    </g>
    <g id="ytick_2">
     <g id="line2d_11">
      <g>
       <use xlink:href="#m0dddb371a1" x="70.67" y="283.036513" style="stroke: #000000; stroke-width: 0.8"/>
      </g>
     </g>
     <g id="text_12">
      <!-- 0.3 -->
      <g transform="translate(35.044375 289.875107) scale(0.18 -0.18)">
       <defs>
        <path id="DejaVuSans-33" d="M 2597 2516 
Q 3050 2419 3304 2112 
Q 3559 1806 3559 1356 
Q 3559 666 3084 287 
Q 2609 -91 1734 -91 
Q 1441 -91 1130 -33 
Q 819 25 488 141 
L 488 750 
Q 750 597 1062 519 
Q 1375 441 1716 441 
Q 2309 441 2620 675 
Q 2931 909 2931 1356 
Q 2931 1769 2642 2001 
Q 2353 2234 1838 2234 
L 1294 2234 
L 1294 2753 
L 1863 2753 
Q 2328 2753 2575 2939 
Q 2822 3125 2822 3475 
Q 2822 3834 2567 4026 
Q 2313 4219 1838 4219 
Q 1578 4219 1281 4162 
Q 984 4106 628 3988 
L 628 4550 
Q 988 4650 1302 4700 
Q 1616 4750 1894 4750 
Q 2613 4750 3031 4423 
Q 3450 4097 3450 3541 
Q 3450 3153 3228 2886 
Q 3006 2619 2597 2516 
z
" transform="scale(0.015625)"/>
       </defs>
       <use xlink:href="#DejaVuSans-30"/>
       <use xlink:href="#DejaVuSans-2e" x="63.623047"/>
       <use xlink:href="#DejaVuSans-33" x="95.410156"/>
      </g>
     </g>
    </g>
    <g id="ytick_3">
     <g id="line2d_12">
      <g>
       <use xlink:href="#m0dddb371a1" x="70.67" y="221.918513" style="stroke: #000000; stroke-width: 0.8"/>
      </g>
     </g>
     <g id="text_13">
      <!-- 0.4 -->
      <g transform="translate(35.044375 228.757107) scale(0.18 -0.18)">
       <use xlink:href="#DejaVuSans-30"/>
       <use xlink:href="#DejaVuSans-2e" x="63.623047"/>
       <use xlink:href="#DejaVuSans-34" x="95.410156"/>
      </g>
     </g>
    </g>
    <g id="ytick_4">
     <g id="line2d_13">
      <g>
       <use xlink:href="#m0dddb371a1" x="70.67" y="174.51171" style="stroke: #000000; stroke-width: 0.8"/>
      </g>
     </g>
     <g id="text_14">
      <!-- 0.5 -->
      <g transform="translate(35.044375 181.350304) scale(0.18 -0.18)">
       <defs>
        <path id="DejaVuSans-35" d="M 691 4666 
L 3169 4666 
L 3169 4134 
L 1269 4134 
L 1269 2991 
Q 1406 3038 1543 3061 
Q 1681 3084 1819 3084 
Q 2600 3084 3056 2656 
Q 3513 2228 3513 1497 
Q 3513 744 3044 326 
Q 2575 -91 1722 -91 
Q 1428 -91 1123 -41 
Q 819 9 494 109 
L 494 744 
Q 775 591 1075 516 
Q 1375 441 1709 441 
Q 2250 441 2565 725 
Q 2881 1009 2881 1497 
Q 2881 1984 2565 2268 
Q 2250 2553 1709 2553 
Q 1456 2553 1204 2497 
Q 953 2441 691 2322 
L 691 4666 
z
" transform="scale(0.015625)"/>
       </defs>
       <use xlink:href="#DejaVuSans-30"/>
       <use xlink:href="#DejaVuSans-2e" x="63.623047"/>
       <use xlink:href="#DejaVuSans-35" x="95.410156"/>
      </g>
     </g>
    </g>
    <g id="ytick_5">
     <g id="line2d_14">
      <g>
       <use xlink:href="#m0dddb371a1" x="70.67" y="135.777531" style="stroke: #000000; stroke-width: 0.8"/>
      </g>
     </g>
     <g id="text_15">
      <!-- 0.6 -->
      <g transform="translate(35.044375 142.616125) scale(0.18 -0.18)">
       <use xlink:href="#DejaVuSans-30"/>
       <use xlink:href="#DejaVuSans-2e" x="63.623047"/>
       <use xlink:href="#DejaVuSans-36" x="95.410156"/>
      </g>
     </g>
    </g>
    <g id="ytick_6">
     <g id="line2d_15">
      <g>
       <use xlink:href="#m0dddb371a1" x="70.67" y="103.028249" style="stroke: #000000; stroke-width: 0.8"/>
      </g>
     </g>
     <g id="text_16">
      <!-- 0.7 -->
      <g transform="translate(35.044375 109.866843) scale(0.18 -0.18)">
       <defs>
        <path id="DejaVuSans-37" d="M 525 4666 
L 3525 4666 
L 3525 4397 
L 1831 0 
L 1172 0 
L 2766 4134 
L 525 4134 
L 525 4666 
z
" transform="scale(0.015625)"/>
       </defs>
       <use xlink:href="#DejaVuSans-30"/>
       <use xlink:href="#DejaVuSans-2e" x="63.623047"/>
       <use xlink:href="#DejaVuSans-37" x="95.410156"/>
      </g>
     </g>
    </g>
    <g id="ytick_7">
     <g id="line2d_16">
      <g>
       <use xlink:href="#m0dddb371a1" x="70.67" y="74.659531" style="stroke: #000000; stroke-width: 0.8"/>
      </g>
     </g>
     <g id="text_17">
      <!-- 0.8 -->
      <g transform="translate(35.044375 81.498125) scale(0.18 -0.18)">
       <use xlink:href="#DejaVuSans-30"/>
       <use xlink:href="#DejaVuSans-2e" x="63.623047"/>
       <use xlink:href="#DejaVuSans-38" x="95.410156"/>
      </g>
     </g>
    </g>
    <g id="ytick_8">
     <g id="line2d_17">
      <g>
       <use xlink:href="#m0dddb371a1" x="70.67" y="49.636548" style="stroke: #000000; stroke-width: 0.8"/>
      </g>
     </g>
     <g id="text_18">
      <!-- 0.9 -->
      <g transform="translate(35.044375 56.475142) scale(0.18 -0.18)">
       <defs>
        <path id="DejaVuSans-39" d="M 703 97 
L 703 672 
Q 941 559 1184 500 
Q 1428 441 1663 441 
Q 2288 441 2617 861 
Q 2947 1281 2994 2138 
Q 2813 1869 2534 1725 
Q 2256 1581 1919 1581 
Q 1219 1581 811 2004 
Q 403 2428 403 3163 
Q 403 3881 828 4315 
Q 1253 4750 1959 4750 
Q 2769 4750 3195 4129 
Q 3622 3509 3622 2328 
Q 3622 1225 3098 567 
Q 2575 -91 1691 -91 
Q 1453 -91 1209 -44 
Q 966 3 703 97 
z
M 1959 2075 
Q 2384 2075 2632 2365 
Q 2881 2656 2881 3163 
Q 2881 3666 2632 3958 
Q 2384 4250 1959 4250 
Q 1534 4250 1286 3958 
Q 1038 3666 1038 3163 
Q 1038 2656 1286 2365 
Q 1534 2075 1959 2075 
z
" transform="scale(0.015625)"/>
       </defs>
       <use xlink:href="#DejaVuSans-30"/>
       <use xlink:href="#DejaVuSans-2e" x="63.623047"/>
       <use xlink:href="#DejaVuSans-39" x="95.410156"/>
      </g>
     </g>
    </g>
    <g id="ytick_9">
     <g id="line2d_18">
      <g>
       <use xlink:href="#m0dddb371a1" x="70.67" y="27.252727" style="stroke: #000000; stroke-width: 0.8"/>
      </g>
     </g>
     <g id="text_19">
      <!-- 1.0 -->
      <g transform="translate(35.044375 34.091321) scale(0.18 -0.18)">
       <use xlink:href="#DejaVuSans-31"/>
       <use xlink:href="#DejaVuSans-2e" x="63.623047"/>
       <use xlink:href="#DejaVuSans-30" x="95.410156"/>
      </g>
     </g>
    </g>
    <g id="text_20">
     <!-- Q(d) -->
     <g transform="translate(26.885 213.803438) rotate(-90) scale(0.2 -0.2)">
      <defs>
       <path id="DejaVuSans-Oblique-51" d="M 2309 -84 
Q 2275 -88 2237 -89 
Q 2200 -91 2125 -91 
Q 1250 -91 756 411 
Q 263 913 263 1797 
Q 263 2319 452 2844 
Q 641 3369 978 3788 
Q 1369 4269 1858 4509 
Q 2347 4750 2938 4750 
Q 3794 4750 4287 4245 
Q 4781 3741 4781 2869 
Q 4781 1928 4265 1147 
Q 3750 366 2919 44 
L 3553 -825 
L 2847 -825 
L 2309 -84 
z
M 2919 4238 
Q 2400 4238 2003 3986 
Q 1606 3734 1313 3219 
Q 1125 2891 1026 2522 
Q 928 2153 928 1778 
Q 928 1128 1239 775 
Q 1550 422 2119 422 
Q 2631 422 3032 676 
Q 3434 931 3719 1434 
Q 3909 1772 4009 2142 
Q 4109 2513 4109 2881 
Q 4109 3528 3796 3883 
Q 3484 4238 2919 4238 
z
" transform="scale(0.015625)"/>
      </defs>
      <use xlink:href="#DejaVuSans-Oblique-51"/>
      <use xlink:href="#DejaVuSans-Oblique-28" x="78.710938"/>
      <use xlink:href="#DejaVuSans-Oblique-64" x="117.724609"/>
      <use xlink:href="#DejaVuSans-Oblique-29" x="181.201172"/>
     </g>
    </g>
   </g>
   <g id="line2d_19">
    <defs>
     <path id="me510a3e269" d="M 0 3.5 
C 0.928211 3.5 1.81853 3.131218 2.474874 2.474874 
C 3.131218 1.81853 3.5 0.928211 3.5 0 
C 3.5 -0.928211 3.131218 -1.81853 2.474874 -2.474874 
C 1.81853 -3.131218 0.928211 -3.5 0 -3.5 
C -0.928211 -3.5 -1.81853 -3.131218 -2.474874 -2.474874 
C -3.131218 -1.81853 -3.5 -0.928211 -3.5 0 
C -3.5 0.928211 -3.131218 1.81853 -2.474874 2.474874 
C -1.81853 3.131218 -0.928211 3.5 0 3.5 
z
" style="stroke: #a52a2a; stroke-width: 1.5"/>
    </defs>
    <g clip-path="url(#p9c0e0b2024)">
     <use xlink:href="#me510a3e269" x="93.148636" y="27.252727" style="fill-opacity: 0; stroke: #a52a2a; stroke-width: 1.5"/>
     <use xlink:href="#me510a3e269" x="112.557312" y="27.252727" style="fill-opacity: 0; stroke: #a52a2a; stroke-width: 1.5"/>
     <use xlink:href="#me510a3e269" x="129.962701" y="27.252727" style="fill-opacity: 0; stroke: #a52a2a; stroke-width: 1.5"/>
     <use xlink:href="#me510a3e269" x="151.351864" y="27.252727" style="fill-opacity: 0; stroke: #a52a2a; stroke-width: 1.5"/>
     <use xlink:href="#me510a3e269" x="177.006607" y="27.252727" style="fill-opacity: 0; stroke: #a52a2a; stroke-width: 1.5"/>
     <use xlink:href="#me510a3e269" x="209.430817" y="27.252727" style="fill-opacity: 0; stroke: #a52a2a; stroke-width: 1.5"/>
     <use xlink:href="#me510a3e269" x="240.77468" y="27.252727" style="fill-opacity: 0; stroke: #a52a2a; stroke-width: 1.5"/>
     <use xlink:href="#me510a3e269" x="270.118268" y="27.252727" style="fill-opacity: 0; stroke: #a52a2a; stroke-width: 1.5"/>
     <use xlink:href="#me510a3e269" x="295.743417" y="27.252727" style="fill-opacity: 0; stroke: #a52a2a; stroke-width: 1.5"/>
     <use xlink:href="#me510a3e269" x="313.951871" y="27.252727" style="fill-opacity: 0; stroke: #a52a2a; stroke-width: 1.5"/>
     <use xlink:href="#me510a3e269" x="331.080807" y="27.252727" style="fill-opacity: 0; stroke: #a52a2a; stroke-width: 1.5"/>
     <use xlink:href="#me510a3e269" x="347.435826" y="27.252727" style="fill-opacity: 0; stroke: #a52a2a; stroke-width: 1.5"/>
     <use xlink:href="#me510a3e269" x="365.179668" y="27.252727" style="fill-opacity: 0; stroke: #a52a2a; stroke-width: 1.5"/>
     <use xlink:href="#me510a3e269" x="385.601017" y="27.252727" style="fill-opacity: 0; stroke: #a52a2a; stroke-width: 1.5"/>
     <use xlink:href="#me510a3e269" x="412.424915" y="27.252727" style="fill-opacity: 0; stroke: #a52a2a; stroke-width: 1.5"/>
     <use xlink:href="#me510a3e269" x="445.672321" y="27.252727" style="fill-opacity: 0; stroke: #a52a2a; stroke-width: 1.5"/>
     <use xlink:href="#me510a3e269" x="542.721364" y="27.252727" style="fill-opacity: 0; stroke: #a52a2a; stroke-width: 1.5"/>
    </g>
   </g>
   <g id="line2d_20">
    <defs>
     <path id="ma8956d80d3" d="M -4 4 
L 4 4 
L 4 -4 
L -4 -4 
z
" style="stroke: #228b22; stroke-width: 1.7; stroke-linejoin: miter"/>
    </defs>
    <g clip-path="url(#p9c0e0b2024)">
     <use xlink:href="#ma8956d80d3" x="93.148636" y="27.252727" style="fill-opacity: 0; stroke: #228b22; stroke-width: 1.7; stroke-linejoin: miter"/>
     <use xlink:href="#ma8956d80d3" x="112.557312" y="39.738072" style="fill-opacity: 0; stroke: #228b22; stroke-width: 1.7; stroke-linejoin: miter"/>
     <use xlink:href="#ma8956d80d3" x="129.962701" y="37.297037" style="fill-opacity: 0; stroke: #228b22; stroke-width: 1.7; stroke-linejoin: miter"/>
     <use xlink:href="#ma8956d80d3" x="151.351864" y="54.371926" style="fill-opacity: 0; stroke: #228b22; stroke-width: 1.7; stroke-linejoin: miter"/>
     <use xlink:href="#ma8956d80d3" x="177.006607" y="63.49361" style="fill-opacity: 0; stroke: #228b22; stroke-width: 1.7; stroke-linejoin: miter"/>
     <use xlink:href="#ma8956d80d3" x="209.430817" y="67.390077" style="fill-opacity: 0; stroke: #228b22; stroke-width: 1.7; stroke-linejoin: miter"/>
     <use xlink:href="#ma8956d80d3" x="240.77468" y="93.346735" style="fill-opacity: 0; stroke: #228b22; stroke-width: 1.7; stroke-linejoin: miter"/>
     <use xlink:href="#ma8956d80d3" x="270.118268" y="105.58773" style="fill-opacity: 0; stroke: #228b22; stroke-width: 1.7; stroke-linejoin: miter"/>
     <use xlink:href="#ma8956d80d3" x="295.743417" y="115.514507" style="fill-opacity: 0; stroke: #228b22; stroke-width: 1.7; stroke-linejoin: miter"/>
     <use xlink:href="#ma8956d80d3" x="313.951871" y="129.689189" style="fill-opacity: 0; stroke: #228b22; stroke-width: 1.7; stroke-linejoin: miter"/>
     <use xlink:href="#ma8956d80d3" x="331.080807" y="135.893743" style="fill-opacity: 0; stroke: #228b22; stroke-width: 1.7; stroke-linejoin: miter"/>
     <use xlink:href="#ma8956d80d3" x="347.435826" y="139.537773" style="fill-opacity: 0; stroke: #228b22; stroke-width: 1.7; stroke-linejoin: miter"/>
     <use xlink:href="#ma8956d80d3" x="365.179668" y="151.042035" style="fill-opacity: 0; stroke: #228b22; stroke-width: 1.7; stroke-linejoin: miter"/>
     <use xlink:href="#ma8956d80d3" x="385.601017" y="158.189108" style="fill-opacity: 0; stroke: #228b22; stroke-width: 1.7; stroke-linejoin: miter"/>
     <use xlink:href="#ma8956d80d3" x="412.424915" y="164.899418" style="fill-opacity: 0; stroke: #228b22; stroke-width: 1.7; stroke-linejoin: miter"/>
     <use xlink:href="#ma8956d80d3" x="445.672321" y="176.492802" style="fill-opacity: 0; stroke: #228b22; stroke-width: 1.7; stroke-linejoin: miter"/>
     <use xlink:href="#ma8956d80d3" x="542.721364" y="212.376409" style="fill-opacity: 0; stroke: #228b22; stroke-width: 1.7; stroke-linejoin: miter"/>
    </g>
   </g>
   <g id="line2d_21">
    <defs>
     <path id="m3c888aa84c" d="M 0 -4 
L -4 4 
L 4 4 
z
" style="stroke: #4169e1; stroke-width: 1.7; stroke-linejoin: miter"/>
    </defs>
    <g clip-path="url(#p9c0e0b2024)">
     <use xlink:href="#m3c888aa84c" x="93.148636" y="27.252727" style="fill-opacity: 0; stroke: #4169e1; stroke-width: 1.7; stroke-linejoin: miter"/>
     <use xlink:href="#m3c888aa84c" x="112.557312" y="40.267945" style="fill-opacity: 0; stroke: #4169e1; stroke-width: 1.7; stroke-linejoin: miter"/>
     <use xlink:href="#m3c888aa84c" x="129.962701" y="48.279709" style="fill-opacity: 0; stroke: #4169e1; stroke-width: 1.7; stroke-linejoin: miter"/>
     <use xlink:href="#m3c888aa84c" x="151.351864" y="63.439627" style="fill-opacity: 0; stroke: #4169e1; stroke-width: 1.7; stroke-linejoin: miter"/>
     <use xlink:href="#m3c888aa84c" x="177.006607" y="78.215683" style="fill-opacity: 0; stroke: #4169e1; stroke-width: 1.7; stroke-linejoin: miter"/>
     <use xlink:href="#m3c888aa84c" x="209.430817" y="94.283222" style="fill-opacity: 0; stroke: #4169e1; stroke-width: 1.7; stroke-linejoin: miter"/>
     <use xlink:href="#m3c888aa84c" x="240.77468" y="118.096862" style="fill-opacity: 0; stroke: #4169e1; stroke-width: 1.7; stroke-linejoin: miter"/>
     <use xlink:href="#m3c888aa84c" x="270.118268" y="137.275679" style="fill-opacity: 0; stroke: #4169e1; stroke-width: 1.7; stroke-linejoin: miter"/>
     <use xlink:href="#m3c888aa84c" x="295.743417" y="154.060113" style="fill-opacity: 0; stroke: #4169e1; stroke-width: 1.7; stroke-linejoin: miter"/>
     <use xlink:href="#m3c888aa84c" x="313.951871" y="167.892909" style="fill-opacity: 0; stroke: #4169e1; stroke-width: 1.7; stroke-linejoin: miter"/>
     <use xlink:href="#m3c888aa84c" x="331.080807" y="178.842568" style="fill-opacity: 0; stroke: #4169e1; stroke-width: 1.7; stroke-linejoin: miter"/>
     <use xlink:href="#m3c888aa84c" x="347.435826" y="188.549255" style="fill-opacity: 0; stroke: #4169e1; stroke-width: 1.7; stroke-linejoin: miter"/>
     <use xlink:href="#m3c888aa84c" x="365.179668" y="201.002566" style="fill-opacity: 0; stroke: #4169e1; stroke-width: 1.7; stroke-linejoin: miter"/>
     <use xlink:href="#m3c888aa84c" x="385.601017" y="213.591147" style="fill-opacity: 0; stroke: #4169e1; stroke-width: 1.7; stroke-linejoin: miter"/>
     <use xlink:href="#m3c888aa84c" x="412.424915" y="228.567803" style="fill-opacity: 0; stroke: #4169e1; stroke-width: 1.7; stroke-linejoin: miter"/>
     <use xlink:href="#m3c888aa84c" x="445.672321" y="247.924303" style="fill-opacity: 0; stroke: #4169e1; stroke-width: 1.7; stroke-linejoin: miter"/>
     <use xlink:href="#m3c888aa84c" x="542.721364" y="307.18261" style="fill-opacity: 0; stroke: #4169e1; stroke-width: 1.7; stroke-linejoin: miter"/>
    </g>
   </g>
   <g id="line2d_22">
    <defs>
     <path id="mb1074e1423" d="M 0 4 
C 1.060812 4 2.078319 3.578535 2.828427 2.828427 
C 3.578535 2.078319 4 1.060812 4 0 
C 4 -1.060812 3.578535 -2.078319 2.828427 -2.828427 
C 2.078319 -3.578535 1.060812 -4 0 -4 
C -1.060812 -4 -2.078319 -3.578535 -2.828427 -2.828427 
C -3.578535 -2.078319 -4 -1.060812 -4 0 
C -4 1.060812 -3.578535 2.078319 -2.828427 2.828427 
C -2.078319 3.578535 -1.060812 4 0 4 
z
" style="stroke: #8a2be2; stroke-width: 1.7"/>
    </defs>
    <g clip-path="url(#p9c0e0b2024)">
     <use xlink:href="#mb1074e1423" x="93.148636" y="27.252727" style="fill-opacity: 0; stroke: #8a2be2; stroke-width: 1.7"/>
     <use xlink:href="#mb1074e1423" x="112.557312" y="41.381899" style="fill-opacity: 0; stroke: #8a2be2; stroke-width: 1.7"/>
     <use xlink:href="#mb1074e1423" x="129.962701" y="53.961206" style="fill-opacity: 0; stroke: #8a2be2; stroke-width: 1.7"/>
     <use xlink:href="#mb1074e1423" x="151.351864" y="69.511237" style="fill-opacity: 0; stroke: #8a2be2; stroke-width: 1.7"/>
     <use xlink:href="#mb1074e1423" x="177.006607" y="88.078165" style="fill-opacity: 0; stroke: #8a2be2; stroke-width: 1.7"/>
     <use xlink:href="#mb1074e1423" x="209.430817" y="111.521482" style="fill-opacity: 0; stroke: #8a2be2; stroke-width: 1.7"/>
     <use xlink:href="#mb1074e1423" x="240.77468" y="134.494384" style="fill-opacity: 0; stroke: #8a2be2; stroke-width: 1.7"/>
     <use xlink:href="#mb1074e1423" x="270.118268" y="156.033082" style="fill-opacity: 0; stroke: #8a2be2; stroke-width: 1.7"/>
     <use xlink:href="#mb1074e1423" x="295.743417" y="174.868103" style="fill-opacity: 0; stroke: #8a2be2; stroke-width: 1.7"/>
     <use xlink:href="#mb1074e1423" x="313.951871" y="188.233685" style="fill-opacity: 0; stroke: #8a2be2; stroke-width: 1.7"/>
     <use xlink:href="#mb1074e1423" x="331.080807" y="200.803613" style="fill-opacity: 0; stroke: #8a2be2; stroke-width: 1.7"/>
     <use xlink:href="#mb1074e1423" x="347.435826" y="212.748706" style="fill-opacity: 0; stroke: #8a2be2; stroke-width: 1.7"/>
     <use xlink:href="#mb1074e1423" x="365.179668" y="225.718494" style="fill-opacity: 0; stroke: #8a2be2; stroke-width: 1.7"/>
     <use xlink:href="#mb1074e1423" x="385.601017" y="240.60841" style="fill-opacity: 0; stroke: #8a2be2; stroke-width: 1.7"/>
     <use xlink:href="#mb1074e1423" x="412.424915" y="260.07244" style="fill-opacity: 0; stroke: #8a2be2; stroke-width: 1.7"/>
     <use xlink:href="#mb1074e1423" x="445.672321" y="284.255654" style="fill-opacity: 0; stroke: #8a2be2; stroke-width: 1.7"/>
     <use xlink:href="#mb1074e1423" x="542.721364" y="355.087148" style="fill-opacity: 0; stroke: #8a2be2; stroke-width: 1.7"/>
    </g>
   </g>
   <g id="line2d_23">
    <path d="M 93.148636 27.252727 
L 112.557312 39.738072 
L 129.962701 37.297037 
L 151.351864 54.371926 
L 177.006607 63.49361 
L 209.430817 67.390077 
L 240.77468 93.346735 
L 270.118268 105.58773 
L 295.743417 115.514507 
L 313.951871 129.689189 
L 331.080807 135.893743 
L 347.435826 139.537773 
L 365.179668 151.042035 
L 385.601017 158.189108 
L 412.424915 164.899418 
L 445.672321 176.492802 
L 542.721364 212.376409 
" clip-path="url(#p9c0e0b2024)" style="fill: none; stroke-dasharray: 5.55,2.4; stroke-dashoffset: 0; stroke: #d2691e; stroke-width: 1.5"/>
   </g>
   <g id="line2d_24">
    <path d="M 93.148636 27.252727 
L 112.557312 41.458467 
L 129.962701 54.197945 
L 151.351864 69.853258 
L 177.006607 88.630664 
L 209.430817 112.362828 
L 240.77468 135.304256 
L 270.118268 156.781629 
L 295.743417 175.537375 
L 313.951871 188.864639 
L 331.080807 201.401775 
L 347.435826 213.37246 
L 365.179668 226.359662 
L 385.601017 241.306604 
L 412.424915 260.939747 
L 445.672321 285.27443 
L 542.721364 356.307273 
" clip-path="url(#p9c0e0b2024)" style="fill: none; stroke-dasharray: 5.55,2.4; stroke-dashoffset: 0; stroke: #000000; stroke-width: 1.5"/>
   </g>
   <g id="patch_3">
    <path d="M 70.67 372.76 
L 70.67 10.8 
" style="fill: none; stroke: #000000; stroke-width: 0.8; stroke-linejoin: miter; stroke-linecap: square"/>
   </g>
   <g id="patch_4">
    <path d="M 565.2 372.76 
L 565.2 10.8 
" style="fill: none; stroke: #000000; stroke-width: 0.8; stroke-linejoin: miter; stroke-linecap: square"/>
   </g>
   <g id="patch_5">
    <path d="M 70.67 372.76 
L 565.2 372.76 
" style="fill: none; stroke: #000000; stroke-width: 0.8; stroke-linejoin: miter; stroke-linecap: square"/>
   </g>
   <g id="patch_6">
    <path d="M 70.67 10.8 
L 565.2 10.8 
" style="fill: none; stroke: #000000; stroke-width: 0.8; stroke-linejoin: miter; stroke-linecap: square"/>
   </g>
   <g id="legend_1">
    <g id="patch_7">
     <path d="M 83.27 363.76 
L 235.19 363.76 
Q 238.79 363.76 238.79 360.16 
L 238.79 189.34 
Q 238.79 185.74 235.19 185.74 
L 83.27 185.74 
Q 79.67 185.74 79.67 189.34 
L 79.67 360.16 
Q 79.67 363.76 83.27 363.76 
z
" style="fill: #ffffff; opacity: 0.8; stroke: #cccccc; stroke-linejoin: miter"/>
    </g>
    <g id="line2d_25">
     <g>
      <use xlink:href="#me510a3e269" x="104.87" y="202.336563" style="fill-opacity: 0; stroke: #a52a2a; stroke-width: 1.5"/>
     </g>
    </g>
    <g id="text_21">
     <!-- $\bar{Q}(d;n=0)$ -->
     <g transform="translate(137.27 208.636563) scale(0.18 -0.18)">
      <defs>
       <path id="DejaVuSans-304" d="M -2518 4769 
L -650 4769 
L -650 4306 
L -2518 4306 
L -2518 4769 
z
" transform="scale(0.015625)"/>
       <path id="DejaVuSans-28" d="M 1984 4856 
Q 1566 4138 1362 3434 
Q 1159 2731 1159 2009 
Q 1159 1288 1364 580 
Q 1569 -128 1984 -844 
L 1484 -844 
Q 1016 -109 783 600 
Q 550 1309 550 2009 
Q 550 2706 781 3412 
Q 1013 4119 1484 4856 
L 1984 4856 
z
" transform="scale(0.015625)"/>
       <path id="DejaVuSans-3b" d="M 750 3309 
L 1409 3309 
L 1409 2516 
L 750 2516 
L 750 3309 
z
M 750 794 
L 1409 794 
L 1409 256 
L 897 -744 
L 494 -744 
L 750 256 
L 750 794 
z
" transform="scale(0.015625)"/>
       <path id="DejaVuSans-Oblique-6e" d="M 3566 2113 
L 3156 0 
L 2578 0 
L 2988 2091 
Q 3016 2238 3031 2350 
Q 3047 2463 3047 2528 
Q 3047 2791 2881 2937 
Q 2716 3084 2419 3084 
Q 1956 3084 1622 2776 
Q 1288 2469 1184 1941 
L 800 0 
L 225 0 
L 903 3500 
L 1478 3500 
L 1363 2950 
Q 1603 3253 1940 3418 
Q 2278 3584 2650 3584 
Q 3113 3584 3367 3334 
Q 3622 3084 3622 2631 
Q 3622 2519 3608 2391 
Q 3594 2263 3566 2113 
z
" transform="scale(0.015625)"/>
       <path id="DejaVuSans-3d" d="M 678 2906 
L 4684 2906 
L 4684 2381 
L 678 2381 
L 678 2906 
z
M 678 1631 
L 4684 1631 
L 4684 1100 
L 678 1100 
L 678 1631 
z
" transform="scale(0.015625)"/>
       <path id="DejaVuSans-29" d="M 513 4856 
L 1013 4856 
Q 1481 4119 1714 3412 
Q 1947 2706 1947 2009 
Q 1947 1309 1714 600 
Q 1481 -109 1013 -844 
L 513 -844 
Q 928 -128 1133 580 
Q 1338 1288 1338 2009 
Q 1338 2731 1133 3434 
Q 928 4138 513 4856 
z
" transform="scale(0.015625)"/>
      </defs>
      <use xlink:href="#DejaVuSans-304" transform="translate(74.021484 19.484375)"/>
      <use xlink:href="#DejaVuSans-Oblique-51" transform="translate(0 0.046875)"/>
      <use xlink:href="#DejaVuSans-28" transform="translate(78.710938 0.046875)"/>
      <use xlink:href="#DejaVuSans-Oblique-64" transform="translate(117.724609 0.046875)"/>
      <use xlink:href="#DejaVuSans-3b" transform="translate(181.201172 0.046875)"/>
      <use xlink:href="#DejaVuSans-Oblique-6e" transform="translate(234.375 0.046875)"/>
      <use xlink:href="#DejaVuSans-3d" transform="translate(317.236328 0.046875)"/>
      <use xlink:href="#DejaVuSans-30" transform="translate(420.507812 0.046875)"/>
      <use xlink:href="#DejaVuSans-29" transform="translate(484.130859 0.046875)"/>
     </g>
    </g>
    <g id="line2d_26">
     <g>
      <use xlink:href="#ma8956d80d3" x="104.87" y="230.776563" style="fill-opacity: 0; stroke: #228b22; stroke-width: 1.7; stroke-linejoin: miter"/>
     </g>
    </g>
    <g id="text_22">
     <!-- $\bar{Q}(d;n=1)$ -->
     <g transform="translate(137.27 237.076563) scale(0.18 -0.18)">
      <use xlink:href="#DejaVuSans-304" transform="translate(74.021484 19.484375)"/>
      <use xlink:href="#DejaVuSans-Oblique-51" transform="translate(0 0.046875)"/>
      <use xlink:href="#DejaVuSans-28" transform="translate(78.710938 0.046875)"/>
      <use xlink:href="#DejaVuSans-Oblique-64" transform="translate(117.724609 0.046875)"/>
      <use xlink:href="#DejaVuSans-3b" transform="translate(181.201172 0.046875)"/>
      <use xlink:href="#DejaVuSans-Oblique-6e" transform="translate(234.375 0.046875)"/>
      <use xlink:href="#DejaVuSans-3d" transform="translate(317.236328 0.046875)"/>
      <use xlink:href="#DejaVuSans-31" transform="translate(420.507812 0.046875)"/>
      <use xlink:href="#DejaVuSans-29" transform="translate(484.130859 0.046875)"/>
     </g>
    </g>
    <g id="line2d_27">
     <g>
      <use xlink:href="#m3c888aa84c" x="104.87" y="259.216563" style="fill-opacity: 0; stroke: #4169e1; stroke-width: 1.7; stroke-linejoin: miter"/>
     </g>
    </g>
    <g id="text_23">
     <!-- $\bar{Q}(d;n=2)$ -->
     <g transform="translate(137.27 265.516563) scale(0.18 -0.18)">
      <use xlink:href="#DejaVuSans-304" transform="translate(74.021484 19.484375)"/>
      <use xlink:href="#DejaVuSans-Oblique-51" transform="translate(0 0.046875)"/>
      <use xlink:href="#DejaVuSans-28" transform="translate(78.710938 0.046875)"/>
      <use xlink:href="#DejaVuSans-Oblique-64" transform="translate(117.724609 0.046875)"/>
      <use xlink:href="#DejaVuSans-3b" transform="translate(181.201172 0.046875)"/>
      <use xlink:href="#DejaVuSans-Oblique-6e" transform="translate(234.375 0.046875)"/>
      <use xlink:href="#DejaVuSans-3d" transform="translate(317.236328 0.046875)"/>
      <use xlink:href="#DejaVuSans-32" transform="translate(420.507812 0.046875)"/>
      <use xlink:href="#DejaVuSans-29" transform="translate(484.130859 0.046875)"/>
     </g>
    </g>
    <g id="line2d_28">
     <g>
      <use xlink:href="#mb1074e1423" x="104.87" y="287.656563" style="fill-opacity: 0; stroke: #8a2be2; stroke-width: 1.7"/>
     </g>
    </g>
    <g id="text_24">
     <!-- $\bar{Q}(d;n=5)$ -->
     <g transform="translate(137.27 293.956563) scale(0.18 -0.18)">
      <use xlink:href="#DejaVuSans-304" transform="translate(74.021484 19.484375)"/>
      <use xlink:href="#DejaVuSans-Oblique-51" transform="translate(0 0.046875)"/>
      <use xlink:href="#DejaVuSans-28" transform="translate(78.710938 0.046875)"/>
      <use xlink:href="#DejaVuSans-Oblique-64" transform="translate(117.724609 0.046875)"/>
      <use xlink:href="#DejaVuSans-3b" transform="translate(181.201172 0.046875)"/>
      <use xlink:href="#DejaVuSans-Oblique-6e" transform="translate(234.375 0.046875)"/>
      <use xlink:href="#DejaVuSans-3d" transform="translate(317.236328 0.046875)"/>
      <use xlink:href="#DejaVuSans-35" transform="translate(420.507812 0.046875)"/>
      <use xlink:href="#DejaVuSans-29" transform="translate(484.130859 0.046875)"/>
     </g>
    </g>
    <g id="line2d_29">
     <path d="M 86.87 316.816563 
L 104.87 316.816563 
L 122.87 316.816563 
" style="fill: none; stroke-dasharray: 5.55,2.4; stroke-dashoffset: 0; stroke: #d2691e; stroke-width: 1.5"/>
    </g>
    <g id="text_25">
     <!-- $\bar{Q}_{S}(d)$ -->
     <g transform="translate(137.27 323.116563) scale(0.18 -0.18)">
      <defs>
       <path id="DejaVuSans-Oblique-53" d="M 3859 4513 
L 3738 3897 
Q 3422 4066 3111 4152 
Q 2800 4238 2509 4238 
Q 1944 4238 1609 3991 
Q 1275 3744 1275 3334 
Q 1275 3109 1398 2989 
Q 1522 2869 2034 2731 
L 2413 2638 
Q 3053 2472 3303 2217 
Q 3553 1963 3553 1503 
Q 3553 797 2998 353 
Q 2444 -91 1538 -91 
Q 1166 -91 791 -17 
Q 416 56 38 206 
L 166 856 
Q 513 641 861 531 
Q 1209 422 1556 422 
Q 2147 422 2503 684 
Q 2859 947 2859 1369 
Q 2859 1650 2717 1795 
Q 2575 1941 2106 2059 
L 1728 2156 
Q 1081 2325 845 2545 
Q 609 2766 609 3163 
Q 609 3859 1145 4304 
Q 1681 4750 2541 4750 
Q 2875 4750 3203 4690 
Q 3531 4631 3859 4513 
z
" transform="scale(0.015625)"/>
      </defs>
      <use xlink:href="#DejaVuSans-304" transform="translate(74.021484 19.484375)"/>
      <use xlink:href="#DejaVuSans-Oblique-51" transform="translate(0 0.046875)"/>
      <use xlink:href="#DejaVuSans-Oblique-53" transform="translate(79.667969 -16.359375) scale(0.7)"/>
      <use xlink:href="#DejaVuSans-28" transform="translate(126.835938 0.046875)"/>
      <use xlink:href="#DejaVuSans-Oblique-64" transform="translate(165.849609 0.046875)"/>
      <use xlink:href="#DejaVuSans-29" transform="translate(229.326172 0.046875)"/>
     </g>
    </g>
    <g id="line2d_30">
     <path d="M 86.87 346.516563 
L 104.87 346.516563 
L 122.87 346.516563 
" style="fill: none; stroke-dasharray: 5.55,2.4; stroke-dashoffset: 0; stroke: #000000; stroke-width: 1.5"/>
    </g>
    <g id="text_26">
     <!-- $\tilde{Q}(d)$ -->
     <g transform="translate(137.27 352.816563) scale(0.18 -0.18)">
      <defs>
       <path id="DejaVuSans-303" d="M -1621 4281 
L -1799 4453 
Q -1867 4516 -1919 4545 
Q -1971 4575 -2011 4575 
Q -2130 4575 -2186 4461 
Q -2242 4347 -2249 4091 
L -2639 4091 
Q -2633 4513 -2473 4742 
Q -2314 4972 -2030 4972 
Q -1911 4972 -1811 4928 
Q -1711 4884 -1596 4781 
L -1417 4609 
Q -1349 4547 -1297 4517 
Q -1246 4488 -1205 4488 
Q -1086 4488 -1030 4602 
Q -974 4716 -967 4972 
L -577 4972 
Q -583 4550 -742 4320 
Q -902 4091 -1186 4091 
Q -1305 4091 -1405 4134 
Q -1505 4178 -1621 4281 
z
" transform="scale(0.015625)"/>
      </defs>
      <use xlink:href="#DejaVuSans-303" transform="translate(73.912109 23.3125)"/>
      <use xlink:href="#DejaVuSans-Oblique-51" transform="translate(0 0.515625)"/>
      <use xlink:href="#DejaVuSans-28" transform="translate(78.710938 0.515625)"/>
      <use xlink:href="#DejaVuSans-Oblique-64" transform="translate(117.724609 0.515625)"/>
      <use xlink:href="#DejaVuSans-29" transform="translate(181.201172 0.515625)"/>
     </g>
    </g>
   </g>
  </g>
 </g>
 <defs>
  <clipPath id="p9c0e0b2024">
   <rect x="70.67" y="10.8" width="494.53" height="361.96"/>
  </clipPath>
 </defs>
</svg>
