<svg width="2608" height="2608" xmlns="http://www.w3.org/2000/svg" xmlns:xlink="http://www.w3.org/1999/xlink" overflow="hidden"><defs><clipPath id="clip0"><rect x="0" y="0" width="2608" height="2608"/></clipPath></defs><g clip-path="url(#clip0)"><rect x="0" y="0" width="2608" height="2608" fill="#FFFFFF"/><rect x="401" y="922" width="1615" height="1510" fill="#E2F0D9"/><rect x="2002" y="922" width="473" height="1510" fill="#A9D18E"/><path d="M2037.5 1558.17C2037.5 1524.11 2065.11 1496.5 2099.17 1496.5L2381.83 1496.5C2415.89 1496.5 2443.5 1524.11 2443.5 1558.17L2443.5 1804.83C2443.5 1838.89 2415.89 1866.5 2381.83 1866.5L2099.17 1866.5C2065.11 1866.5 2037.5 1838.89 2037.5 1804.83Z" stroke="#404040" stroke-width="3.00019" stroke-miterlimit="8" fill="#FFFFFF" fill-rule="evenodd"/><path d="M1133 1442.5 1153.25 1442.5 1153.25 1379 1193.75 1379 1193.75 1442.5 1214 1442.5 1173.5 1483Z" fill="#7C96EB" fill-rule="evenodd"/><path d="M2261.15 1780.94C2176.09 1754.19 2116.03 1672.83 2111.3 1577.96" stroke="#105A9E" stroke-width="8.33387" stroke-miterlimit="8" fill="none" fill-rule="evenodd"/><path d="M2091 1793 2385.41 1793 2385.41 1797 2091 1797ZM2383.41 1789 2395.41 1795 2383.41 1801Z" fill="#3B3838"/><path d="M978.5 1558.17C978.5 1524.11 1006.11 1496.5 1040.17 1496.5L1321.83 1496.5C1355.89 1496.5 1383.5 1524.11 1383.5 1558.17L1383.5 1804.83C1383.5 1838.89 1355.89 1866.5 1321.83 1866.5L1040.17 1866.5C1006.11 1866.5 978.5 1838.89 978.5 1804.83Z" stroke="#404040" stroke-width="3.00019" stroke-miterlimit="8" fill="#FFFFFF" fill-rule="evenodd"/><path d="M1033 1792 1327.41 1792 1327.41 1796 1033 1796ZM1325.41 1788 1337.41 1794 1325.41 1800Z" fill="#3B3838"/><path d="M2.00013-8.35334e-07 2.00023 241.397-2.00003 241.397-2.00013 8.35334e-07ZM6.00048 239.397 0.000104994 251.397-6.00028 239.397Z" fill="#3B3838" transform="matrix(1 0 0 -1 1033 1796.4)"/><text font-family="Calibri,Calibri_MSFontService,sans-serif" font-weight="400" font-size="43" transform="translate(1191.31 1838)">distance</text><path d="M1344.59 1770.91C1190.03 1762.64 1067.85 1709.09 1047.83 1640.85" stroke="#105A9E" stroke-width="8.33387" stroke-miterlimit="8" fill="none" fill-rule="evenodd"/><path d="M2.00013-8.35334e-07 2.00023 241.397-2.00003 241.397-2.00013 8.35334e-07ZM6.00048 239.397 0.000104994 251.397-6.00028 239.397Z" fill="#3B3838" transform="matrix(1 0 0 -1 2091 1796.4)"/><text font-family="Calibri,Calibri_MSFontService,sans-serif" font-weight="400" font-size="43" transform="translate(2249.33 1838)">distance</text><path d="M441.5 1558.17C441.5 1524.11 469.11 1496.5 503.168 1496.5L785.832 1496.5C819.891 1496.5 847.5 1524.11 847.5 1558.17L847.5 1804.83C847.5 1838.89 819.891 1866.5 785.832 1866.5L503.168 1866.5C469.11 1866.5 441.5 1838.89 441.5 1804.83Z" stroke="#404040" stroke-width="3.00019" stroke-miterlimit="8" fill="#FFFFFF" fill-rule="evenodd"/><path d="M496 1793 790.406 1793 790.406 1797 496 1797ZM788.405 1789 800.406 1795 788.405 1801Z" fill="#3B3838"/><path d="M2.00013-8.35334e-07 2.00023 241.397-2.00003 241.397-2.00013 8.35334e-07ZM6.00048 239.397 0.000104994 251.397-6.00028 239.397Z" fill="#3B3838" transform="matrix(1 0 0 -1 496 1796.4)"/><text font-family="Calibri,Calibri_MSFontService,sans-serif" font-weight="400" font-size="43" transform="translate(654.77 1838)">distance</text><path d="M502 1669 783.195 1669" stroke="#105A9E" stroke-width="8.33387" stroke-miterlimit="8" fill="none" fill-rule="evenodd"/><path d="M971.827 1401.01 956.777 1387.06 855.704 1496.13 825.604 1468.24 926.677 1359.17 911.627 1345.22 969.62 1343.01Z" fill="#7C96EB" fill-rule="evenodd"/><text font-family="Calibri,Calibri_MSFontService,sans-serif" font-weight="400" font-size="96" transform="translate(1399.54 125)">Flow data</text><path d="M1718.68 463.385 1571.85 440.678 1573.27 431.454 1720.1 454.161ZM1575.03 450.616 1549.5 432.5 1579.31 422.943Z" fill="#EB5A23"/><path d="M1487.76 381.374 1434.19 252.289 1442.81 248.711 1496.38 377.796ZM1503.21 369.908 1501.01 401.138 1477.35 380.641Z" fill="#EB5A23"/><path d="M0.287332-4.65811 202.845 7.8365 202.27 17.1527-0.287332 4.65811ZM198.761-1.76704 225.848 13.9313 197.037 26.1816Z" fill="#EB5A23" transform="matrix(1 0 0 -1 1427.5 675.431)"/><path d="M10.1516-6.40025 112.504 155.944 92.2008 168.744-10.1516 6.40025ZM126.407 132.992 134.354 213.102 65.4973 171.393Z" fill="#EB5A23" transform="matrix(1 0 0 -1 1277 490.102)"/><path d="M4.61613-0.686924 25.8994 142.337 16.6672 143.711-4.61613 0.686924ZM34.4448 136.347 24.7179 166.105 6.74796 140.469Z" fill="#EB5A23" transform="matrix(1 0 0 -1 1694.5 662.605)"/><path d="M1399.44 261.451C1391.1 239.875 1401.02 215.948 1421.58 208.008 1442.14 200.067 1465.56 211.121 1473.89 232.697 1482.22 254.273 1472.31 278.2 1451.75 286.14 1431.19 294.08 1407.77 283.026 1399.44 261.451Z" stroke="#767171" stroke-width="6.00038" stroke-miterlimit="8" fill="#FFFFFF" fill-rule="evenodd"/><path d="M1389.55 688.904C1379.69 667.986 1387.85 643.406 1407.78 634.003 1427.72 624.6 1451.87 633.935 1461.74 654.853 1471.61 675.771 1463.45 700.352 1443.51 709.754 1423.58 719.157 1399.42 709.822 1389.55 688.904Z" stroke="#767171" stroke-width="6.00038" stroke-miterlimit="8" fill="#FFFFFF" fill-rule="evenodd"/><path d="M1693.82 423.268C1710.64 409.021 1736.39 411.777 1751.34 429.424 1766.29 447.07 1764.78 472.926 1747.97 487.173 1731.15 501.42 1705.4 498.664 1690.45 481.017 1675.5 463.37 1677.01 437.515 1693.82 423.268Z" stroke="#767171" stroke-width="6.00038" stroke-miterlimit="8" fill="#FFFFFF" fill-rule="evenodd"/><path d="M1243.75 462.745C1256.63 443.535 1281.92 437.911 1300.22 450.185 1318.53 462.459 1322.93 487.982 1310.05 507.193 1297.17 526.403 1271.89 532.026 1253.58 519.753 1235.27 507.479 1230.87 481.956 1243.75 462.745Z" stroke="#767171" stroke-width="6.00038" stroke-miterlimit="8" fill="#FFFFFF" fill-rule="evenodd"/><path d="M1653 661C1653 637.804 1670.91 619 1693 619 1715.09 619 1733 637.804 1733 661 1733 684.196 1715.09 703 1693 703 1670.91 703 1653 684.196 1653 661Z" stroke="#767171" stroke-width="6.00038" stroke-miterlimit="8" fill="#FFFFFF" fill-rule="evenodd"/><path d="M11.2145-4.27244 62.7557 131.015 40.3268 139.56-11.2145 4.27244ZM80.9123 111.256 72.9035 191.36 13.6254 136.89Z" fill="#EB5A23" transform="matrix(-1 0 0 1 1511.9 442)"/><path d="M0.787982-4.59996 178.549 25.8508 176.973 35.0507-0.787982 4.59996ZM175.525 15.8629 200.761 34.3907 170.797 43.4626Z" fill="#EB5A23" transform="matrix(-1 0 0 1 1518.26 442.5)"/><path d="M1521.26 439.367 1635.45 577.9 1616.93 593.166 1502.74 454.633ZM1646.34 553.373 1664.36 631.834 1590.78 599.172Z" fill="#EB5A23"/><path d="M1471.39 450.306C1466.02 427.809 1479.05 405.423 1500.48 400.305 1521.92 395.187 1543.65 409.275 1549.02 431.772 1554.4 454.268 1541.37 476.654 1519.93 481.772 1498.49 486.89 1476.76 472.802 1471.39 450.306Z" stroke="#767171" stroke-width="6.00038" stroke-miterlimit="8" fill="#FFFFFF" fill-rule="evenodd"/><path d="M569.834 2499.53C571.803 2499.53 573.358 2500.18 574.498 2501.48 575.639 2502.77 576.209 2504.47 576.209 2506.56 576.209 2508.22 575.834 2510.06 575.084 2512.09L575.647 2512.28C578.709 2507.97 581.623 2504.77 584.389 2502.69 587.154 2500.62 590.006 2499.58 592.944 2499.58 595.85 2499.58 598.084 2500.41 599.647 2502.08 601.209 2503.76 601.99 2506.08 601.99 2509.05 601.99 2511.01 601.537 2513.81 600.631 2517.44L597.584 2529.72C596.74 2533.12 596.319 2535.53 596.319 2536.94 596.319 2538.19 596.522 2539.09 596.928 2539.66 597.334 2540.22 597.975 2540.5 598.85 2540.5 599.787 2540.5 600.787 2540.12 601.85 2539.35 602.912 2538.58 604.412 2537.12 606.35 2534.97L609.022 2537.59C606.334 2540.47 603.99 2542.57 601.99 2543.9 599.99 2545.23 597.709 2545.89 595.147 2545.89 593.115 2545.89 591.49 2545.16 590.272 2543.71 589.053 2542.26 588.444 2540.41 588.444 2538.16 588.444 2536.12 588.959 2533.14 589.99 2529.2L592.053 2521.09C592.803 2518.16 593.295 2515.98 593.529 2514.58 593.764 2513.17 593.881 2512.03 593.881 2511.16 593.881 2509 593.522 2507.44 592.803 2506.49 592.084 2505.54 590.912 2505.06 589.287 2505.06 587.975 2505.06 586.561 2505.58 585.045 2506.63 583.529 2507.68 581.92 2509.26 580.217 2511.37 578.514 2513.48 577.147 2515.52 576.115 2517.51 575.084 2519.49 574.24 2521.94 573.584 2524.84L569.131 2545.14 561.022 2545.14 567.865 2515.42C568.553 2512.42 568.897 2510.11 568.897 2508.48 568.897 2507.23 568.694 2506.33 568.287 2505.76 567.881 2505.2 567.24 2504.92 566.365 2504.92 565.397 2504.92 564.373 2505.32 563.295 2506.12 562.217 2506.91 560.74 2508.36 558.865 2510.45L556.194 2507.83C559.069 2504.83 561.459 2502.69 563.365 2501.43 565.272 2500.16 567.428 2499.53 569.834 2499.53Z" fill-rule="evenodd"/><text fill="#000000" fill-opacity="0" font-family="Arial,Arial_MSFontService,sans-serif" font-size="46.3594" x="556.194" y="2540.09">ğ‘›</text><path d="M645.365 2524.33 703.115 2524.33 703.115 2530.56 645.365 2530.56ZM645.365 2504.87 703.115 2504.87 703.115 2511.11 645.365 2511.11Z" fill-rule="evenodd"/><text fill="#000000" fill-opacity="0" font-family="Arial,Arial_MSFontService,sans-serif" font-size="25.6875" x="645.365" y="2527.35">=</text><path d="M763.298 2484.39C761.142 2484.39 759.337 2485.03 757.884 2486.31 756.431 2487.59 755.259 2489.44 754.369 2491.84 753.478 2494.25 752.845 2497.18 752.47 2500.63 752.095 2504.08 751.908 2507.98 751.908 2512.33 751.908 2522.51 752.853 2529.99 754.744 2534.76 756.634 2539.52 759.564 2541.91 763.533 2541.91 767.314 2541.91 770.119 2539.66 771.947 2535.18 773.775 2530.69 774.689 2523.75 774.689 2514.34 774.689 2507.16 774.22 2501.33 773.283 2496.88 772.345 2492.43 771.04 2489.23 769.369 2487.3 767.697 2485.36 765.673 2484.39 763.298 2484.39ZM763.533 2480.41C770.376 2480.41 775.47 2483.05 778.814 2488.33 782.158 2493.61 783.83 2501.59 783.83 2512.28 783.83 2523.34 782.04 2531.71 778.462 2537.38 774.884 2543.05 769.658 2545.89 762.783 2545.89 756.033 2545.89 751.009 2543.23 747.712 2537.92 744.415 2532.61 742.767 2524.55 742.767 2513.73 742.767 2507.98 743.275 2503.01 744.29 2498.83 745.306 2494.64 746.728 2491.18 748.556 2488.44 750.384 2485.71 752.58 2483.69 755.142 2482.37 757.705 2481.06 760.501 2480.41 763.533 2480.41Z" fill-rule="evenodd"/><text fill="#000000" fill-opacity="0" font-family="Arial,Arial_MSFontService,sans-serif" font-size="65.4844" x="742.767" y="2537.7">0</text><path d="M1098.97 2499.53C1100.94 2499.53 1102.49 2500.18 1103.63 2501.48 1104.77 2502.77 1105.34 2504.47 1105.34 2506.56 1105.34 2508.22 1104.97 2510.06 1104.22 2512.09L1104.78 2512.28C1107.84 2507.97 1110.76 2504.77 1113.52 2502.69 1116.29 2500.62 1119.14 2499.58 1122.08 2499.58 1124.98 2499.58 1127.22 2500.41 1128.78 2502.08 1130.34 2503.76 1131.12 2506.08 1131.12 2509.05 1131.12 2511.01 1130.67 2513.81 1129.76 2517.44L1126.72 2529.72C1125.87 2533.12 1125.45 2535.53 1125.45 2536.94 1125.45 2538.19 1125.65 2539.09 1126.06 2539.66 1126.47 2540.22 1127.11 2540.5 1127.98 2540.5 1128.92 2540.5 1129.92 2540.12 1130.98 2539.35 1132.05 2538.58 1133.55 2537.12 1135.48 2534.97L1138.15 2537.59C1135.47 2540.47 1133.12 2542.57 1131.12 2543.9 1129.12 2545.23 1126.84 2545.89 1124.28 2545.89 1122.25 2545.89 1120.62 2545.16 1119.4 2543.71 1118.19 2542.26 1117.58 2540.41 1117.58 2538.16 1117.58 2536.12 1118.09 2533.14 1119.12 2529.2L1121.19 2521.09C1121.94 2518.16 1122.43 2515.98 1122.66 2514.58 1122.9 2513.17 1123.01 2512.03 1123.01 2511.16 1123.01 2509 1122.65 2507.44 1121.94 2506.49 1121.22 2505.54 1120.05 2505.06 1118.42 2505.06 1117.11 2505.06 1115.69 2505.58 1114.18 2506.63 1112.66 2507.68 1111.05 2509.26 1109.35 2511.37 1107.65 2513.48 1106.28 2515.52 1105.25 2517.51 1104.22 2519.49 1103.37 2521.94 1102.72 2524.84L1098.26 2545.14 1090.15 2545.14 1097 2515.42C1097.69 2512.42 1098.03 2510.11 1098.03 2508.48 1098.03 2507.23 1097.83 2506.33 1097.42 2505.76 1097.01 2505.2 1096.37 2504.92 1095.5 2504.92 1094.53 2504.92 1093.51 2505.32 1092.43 2506.12 1091.35 2506.91 1089.87 2508.36 1088 2510.45L1085.33 2507.83C1088.2 2504.83 1090.59 2502.69 1092.5 2501.43 1094.4 2500.16 1096.56 2499.53 1098.97 2499.53Z" fill-rule="evenodd"/><text fill="#000000" fill-opacity="0" font-family="Arial,Arial_MSFontService,sans-serif" font-size="46.3594" x="1085.33" y="2540.09">ğ‘›</text><path d="M1174.5 2524.33 1232.25 2524.33 1232.25 2530.56 1174.5 2530.56ZM1174.5 2504.87 1232.25 2504.87 1232.25 2511.11 1174.5 2511.11Z" fill-rule="evenodd"/><text fill="#000000" fill-opacity="0" font-family="Arial,Arial_MSFontService,sans-serif" font-size="25.6875" x="1174.5" y="2527.35">=</text><path d="M1296.13 2480.41 1298.71 2480.41C1298.53 2483.41 1298.43 2487.56 1298.43 2492.87L1298.43 2532.91C1298.43 2534.72 1298.53 2536.08 1298.74 2537.01 1298.94 2537.93 1299.3 2538.68 1299.81 2539.26 1300.33 2539.83 1301.07 2540.29 1302.04 2540.62 1303.01 2540.94 1304.23 2541.19 1305.7 2541.37 1307.17 2541.54 1309.1 2541.66 1311.51 2541.72L1311.51 2545.14 1276.87 2545.14 1276.87 2541.72C1280.34 2541.56 1282.81 2541.35 1284.3 2541.08 1285.78 2540.82 1286.92 2540.42 1287.7 2539.89 1288.48 2539.36 1289.05 2538.61 1289.41 2537.64 1289.77 2536.67 1289.95 2535.09 1289.95 2532.91L1289.95 2494.89C1289.95 2493.64 1289.73 2492.73 1289.29 2492.15 1288.85 2491.57 1288.21 2491.28 1287.37 2491.28 1286.37 2491.28 1284.95 2491.8 1283.1 2492.83 1281.26 2493.86 1278.98 2495.28 1276.26 2497.09L1274.2 2493.48Z" fill-rule="evenodd"/><text fill="#000000" fill-opacity="0" font-family="Arial,Arial_MSFontService,sans-serif" font-size="64.7344" x="1274.2" y="2537.05">1</text><path d="M2137 2487.75C2138.97 2487.75 2140.52 2488.4 2141.66 2489.7 2142.8 2490.99 2143.37 2492.69 2143.37 2494.78 2143.37 2496.44 2143 2498.28 2142.25 2500.31L2142.81 2500.5C2145.87 2496.19 2148.79 2492.99 2151.55 2490.91 2154.32 2488.84 2157.17 2487.8 2160.11 2487.8 2163.01 2487.8 2165.25 2488.63 2166.81 2490.3 2168.37 2491.98 2169.16 2494.3 2169.16 2497.27 2169.16 2499.23 2168.7 2502.03 2167.8 2505.66L2164.75 2517.94C2163.91 2521.34 2163.48 2523.75 2163.48 2525.16 2163.48 2526.41 2163.69 2527.31 2164.09 2527.87 2164.5 2528.44 2165.14 2528.72 2166.01 2528.72 2166.95 2528.72 2167.95 2528.34 2169.01 2527.57 2170.08 2526.8 2171.58 2525.34 2173.51 2523.19L2176.19 2525.81C2173.5 2528.69 2171.16 2530.79 2169.16 2532.12 2167.16 2533.45 2164.87 2534.11 2162.31 2534.11 2160.28 2534.11 2158.66 2533.38 2157.44 2531.93 2156.22 2530.48 2155.61 2528.62 2155.61 2526.37 2155.61 2524.34 2156.12 2521.36 2157.16 2517.42L2159.22 2509.31C2159.97 2506.37 2160.46 2504.2 2160.69 2502.8 2160.93 2501.39 2161.05 2500.25 2161.05 2499.37 2161.05 2497.22 2160.69 2495.66 2159.97 2494.71 2159.25 2493.76 2158.08 2493.28 2156.45 2493.28 2155.14 2493.28 2153.73 2493.8 2152.21 2494.85 2150.69 2495.9 2149.08 2497.48 2147.38 2499.59 2145.68 2501.7 2144.31 2503.74 2143.28 2505.73 2142.25 2507.71 2141.41 2510.16 2140.75 2513.06L2136.3 2533.36 2128.19 2533.36 2135.03 2503.64C2135.72 2500.64 2136.06 2498.33 2136.06 2496.7 2136.06 2495.45 2135.86 2494.55 2135.45 2493.98 2135.05 2493.42 2134.41 2493.14 2133.53 2493.14 2132.56 2493.14 2131.54 2493.54 2130.46 2494.34 2129.38 2495.13 2127.91 2496.58 2126.03 2498.67L2123.36 2496.05C2126.23 2493.05 2128.62 2490.91 2130.53 2489.65 2132.44 2488.38 2134.59 2487.75 2137 2487.75Z" fill-rule="evenodd"/><text fill="#000000" fill-opacity="0" font-family="Arial,Arial_MSFontService,sans-serif" font-size="46.3594" x="2123.36" y="2528.31">ğ‘›</text><path d="M2212.53 2512.55 2270.28 2512.55 2270.28 2518.78 2212.53 2518.78ZM2212.53 2493.09 2270.28 2493.09 2270.28 2499.33 2212.53 2499.33Z" fill-rule="evenodd"/><text fill="#000000" fill-opacity="0" font-family="Arial,Arial_MSFontService,sans-serif" font-size="25.6875" x="2212.53" y="2515.57">=</text><path d="M2318.65 2487.75C2320.62 2487.75 2322.17 2488.4 2323.31 2489.7 2324.46 2490.99 2325.03 2492.69 2325.03 2494.78 2325.03 2496.44 2324.65 2498.28 2323.9 2500.31L2324.46 2500.5C2327.53 2496.19 2330.44 2492.99 2333.21 2490.91 2335.97 2488.84 2338.82 2487.8 2341.76 2487.8 2344.67 2487.8 2346.9 2488.63 2348.46 2490.3 2350.03 2491.98 2350.81 2494.3 2350.81 2497.27 2350.81 2499.23 2350.35 2502.03 2349.45 2505.66L2346.4 2517.94C2345.56 2521.34 2345.14 2523.75 2345.14 2525.16 2345.14 2526.41 2345.34 2527.31 2345.74 2527.87 2346.15 2528.44 2346.79 2528.72 2347.67 2528.72 2348.6 2528.72 2349.6 2528.34 2350.67 2527.57 2351.73 2526.8 2353.23 2525.34 2355.17 2523.19L2357.84 2525.81C2355.15 2528.69 2352.81 2530.79 2350.81 2532.12 2348.81 2533.45 2346.53 2534.11 2343.96 2534.11 2341.93 2534.11 2340.31 2533.38 2339.09 2531.93 2337.87 2530.48 2337.26 2528.62 2337.26 2526.37 2337.26 2524.34 2337.78 2521.36 2338.81 2517.42L2340.87 2509.31C2341.62 2506.37 2342.11 2504.2 2342.35 2502.8 2342.58 2501.39 2342.7 2500.25 2342.7 2499.37 2342.7 2497.22 2342.34 2495.66 2341.62 2494.71 2340.9 2493.76 2339.73 2493.28 2338.1 2493.28 2336.79 2493.28 2335.38 2493.8 2333.86 2494.85 2332.35 2495.9 2330.74 2497.48 2329.03 2499.59 2327.33 2501.7 2325.96 2503.74 2324.93 2505.73 2323.9 2507.71 2323.06 2510.16 2322.4 2513.06L2317.95 2533.36 2309.84 2533.36 2316.68 2503.64C2317.37 2500.64 2317.71 2498.33 2317.71 2496.7 2317.71 2495.45 2317.51 2494.55 2317.1 2493.98 2316.7 2493.42 2316.06 2493.14 2315.18 2493.14 2314.21 2493.14 2313.19 2493.54 2312.11 2494.34 2311.03 2495.13 2309.56 2496.58 2307.68 2498.67L2305.01 2496.05C2307.89 2493.05 2310.28 2490.91 2312.18 2489.65 2314.09 2488.38 2316.24 2487.75 2318.65 2487.75Z" fill-rule="evenodd"/><text fill="#000000" fill-opacity="0" font-family="Arial,Arial_MSFontService,sans-serif" font-size="46.3594" x="2305.01" y="2528.31">ğ‘›</text><path d="M2448.91 2536.55C2443.85 2536.66 2440.14 2537.31 2437.77 2538.5 2435.4 2539.68 2434.21 2541.48 2434.21 2543.9 2434.21 2545.76 2434.74 2547.11 2435.8 2547.95 2436.86 2548.78 2438.31 2549.19 2440.16 2549.19 2441.46 2549.19 2442.64 2548.97 2443.71 2548.51 2444.78 2548.05 2445.7 2547.47 2446.46 2546.75 2447.23 2546.03 2447.83 2545.23 2448.26 2544.36 2448.69 2543.48 2448.91 2542.62 2448.91 2541.78ZM2465.01 2518.77 2480.01 2518.77 2480.01 2520.96C2478.92 2521.1 2478.14 2521.33 2477.67 2521.66 2477.2 2521.99 2476.97 2522.39 2476.97 2522.84 2476.97 2523.3 2477.09 2523.76 2477.33 2524.24 2477.57 2524.72 2477.95 2525.29 2478.47 2525.95L2482.99 2532.07 2487.84 2526.19C2488.36 2525.6 2488.77 2525.05 2489.05 2524.53 2489.34 2524.02 2489.48 2523.43 2489.48 2522.77 2489.48 2522.36 2489.26 2521.99 2488.81 2521.66 2488.37 2521.33 2487.69 2521.1 2486.78 2520.96L2486.78 2518.77 2499.32 2518.77 2499.32 2520.96C2498.21 2521.23 2497.14 2521.78 2496.13 2522.6 2495.11 2523.42 2494 2524.54 2492.8 2525.95L2485.28 2534.98 2493.58 2545.6C2494.22 2546.45 2494.82 2547.17 2495.38 2547.78 2495.93 2548.38 2496.46 2548.89 2496.95 2549.3 2497.44 2549.71 2497.91 2550.03 2498.37 2550.25 2498.82 2550.48 2499.28 2550.65 2499.73 2550.77L2499.73 2552.95 2484.52 2552.95 2484.52 2550.66C2485.53 2550.55 2486.26 2550.32 2486.73 2549.98 2487.2 2549.64 2487.43 2549.24 2487.43 2548.78 2487.43 2548.4 2487.36 2548 2487.22 2547.59 2487.09 2547.18 2486.8 2546.68 2486.37 2546.08L2481.11 2539.01 2475.4 2546.02C2474.97 2546.54 2474.66 2547.01 2474.48 2547.42 2474.29 2547.83 2474.2 2548.26 2474.2 2548.72 2474.2 2549.15 2474.44 2549.55 2474.9 2549.93 2475.37 2550.3 2476.1 2550.55 2477.11 2550.66L2477.11 2552.95 2464.29 2552.95 2464.29 2550.77C2464.93 2550.54 2465.5 2550.3 2466 2550.07 2466.5 2549.83 2467.01 2549.51 2467.52 2549.11 2468.03 2548.71 2468.59 2548.2 2469.18 2547.59 2469.77 2546.97 2470.48 2546.17 2471.3 2545.19L2478.82 2536.21 2471.09 2526.05C2470.39 2525.12 2469.77 2524.35 2469.25 2523.73 2468.72 2523.11 2468.24 2522.61 2467.79 2522.23 2467.35 2521.84 2466.9 2521.55 2466.46 2521.37 2466.02 2521.19 2465.53 2521.05 2465.01 2520.96ZM2445.08 2518.06C2446.83 2518.1 2448.37 2518.3 2449.68 2518.65 2450.99 2519.01 2452.08 2519.62 2452.96 2520.48 2453.84 2521.35 2454.5 2522.52 2454.94 2523.99 2455.39 2525.46 2455.62 2527.32 2455.64 2529.57L2455.64 2542.63C2455.64 2544.11 2455.63 2545.31 2455.61 2546.22 2455.58 2547.13 2455.69 2547.87 2455.92 2548.44 2456.14 2549.01 2456.55 2549.46 2457.15 2549.79 2457.74 2550.12 2458.64 2550.45 2459.85 2550.77L2459.85 2552.95 2449.32 2552.95C2449.36 2552.11 2449.4 2551.27 2449.42 2550.42 2449.44 2549.58 2449.48 2548.76 2449.52 2547.96 2449.46 2547.92 2449.39 2547.89 2449.32 2547.88 2449.25 2547.87 2449.16 2547.84 2449.04 2547.79 2447.97 2548.84 2446.95 2549.73 2445.99 2550.46 2445.02 2551.19 2444.05 2551.79 2443.08 2552.25 2442.11 2552.72 2441.13 2553.06 2440.14 2553.26 2439.15 2553.47 2438.12 2553.57 2437.05 2553.57 2435.57 2553.57 2434.23 2553.35 2433.03 2552.92 2431.84 2552.49 2430.82 2551.88 2429.99 2551.09 2429.16 2550.3 2428.52 2549.38 2428.08 2548.31 2427.63 2547.23 2427.41 2546.05 2427.41 2544.75 2427.41 2541.24 2429.2 2538.55 2432.79 2536.68 2436.38 2534.82 2441.75 2533.7 2448.91 2533.33L2448.91 2530.87C2448.91 2529.19 2448.78 2527.76 2448.52 2526.58 2448.25 2525.41 2447.84 2524.46 2447.28 2523.73 2446.73 2523 2445.99 2522.47 2445.08 2522.14 2444.17 2521.81 2443.06 2521.65 2441.76 2521.65 2439.96 2521.65 2438.45 2522.12 2437.22 2523.08 2435.99 2524.04 2435.08 2525.55 2434.48 2527.63L2429.43 2527.63 2429.43 2522.43C2431.07 2521.66 2432.57 2521 2433.94 2520.45 2435.3 2519.9 2436.61 2519.45 2437.85 2519.1 2439.09 2518.75 2440.3 2518.49 2441.47 2518.33 2442.65 2518.17 2443.85 2518.08 2445.08 2518.06ZM2385.14 2518.06C2387.65 2518.06 2389.66 2518.59 2391.17 2519.65 2392.69 2520.71 2393.8 2522.35 2394.5 2524.58 2395.78 2523.35 2396.93 2522.33 2397.94 2521.51 2398.95 2520.69 2399.91 2520.03 2400.81 2519.53 2401.71 2519.02 2402.6 2518.67 2403.49 2518.45 2404.38 2518.23 2405.35 2518.1 2406.4 2518.06 2407.95 2518.08 2409.34 2518.3 2410.57 2518.72 2411.8 2519.14 2412.84 2519.82 2413.7 2520.76 2414.55 2521.69 2415.21 2522.92 2415.66 2524.45 2416.12 2525.97 2416.33 2527.84 2416.31 2530.05L2416.31 2544.24C2416.31 2545.58 2416.33 2546.61 2416.36 2547.33 2416.4 2548.05 2416.54 2548.61 2416.79 2549.02 2417.04 2549.43 2417.44 2549.75 2418 2549.96 2418.56 2550.18 2419.36 2550.45 2420.41 2550.77L2420.41 2552.95 2405.48 2552.95 2405.48 2550.77C2406.39 2550.45 2407.12 2550.2 2407.66 2550.01 2408.21 2549.83 2408.63 2549.55 2408.91 2549.18 2409.2 2548.8 2409.38 2548.25 2409.46 2547.54 2409.54 2546.82 2409.58 2545.78 2409.58 2544.41L2409.58 2533.68C2409.58 2531.26 2409.45 2529.34 2409.18 2527.9 2408.92 2526.46 2408.53 2525.36 2408.02 2524.6 2407.51 2523.84 2406.85 2523.34 2406.06 2523.11 2405.26 2522.89 2404.34 2522.77 2403.29 2522.77 2402.49 2522.77 2401.61 2522.98 2400.66 2523.41 2399.7 2523.83 2398.81 2524.4 2397.99 2525.11 2397.17 2525.83 2396.48 2526.66 2395.92 2527.59 2395.36 2528.53 2395.08 2529.49 2395.08 2530.5L2395.08 2544.24C2395.08 2545.58 2395.11 2546.62 2395.15 2547.37 2395.2 2548.11 2395.35 2548.68 2395.61 2549.07 2395.88 2549.47 2396.29 2549.78 2396.85 2550 2397.4 2550.21 2398.21 2550.47 2399.25 2550.77L2399.25 2552.95 2384.25 2552.95 2384.25 2550.77C2385.16 2550.45 2385.89 2550.19 2386.42 2550 2386.96 2549.8 2387.37 2549.52 2387.65 2549.14 2387.94 2548.77 2388.12 2548.23 2388.2 2547.52 2388.28 2546.81 2388.32 2545.78 2388.32 2544.41L2388.32 2534.12C2388.32 2531.64 2388.19 2529.65 2387.92 2528.17 2387.66 2526.69 2387.27 2525.56 2386.76 2524.77 2386.25 2523.99 2385.59 2523.47 2384.8 2523.22 2384 2522.97 2383.08 2522.82 2382.03 2522.77 2381.12 2522.82 2380.17 2523.06 2379.19 2523.51 2378.21 2523.95 2377.32 2524.53 2376.51 2525.25 2375.7 2525.97 2375.04 2526.77 2374.54 2527.66 2374.04 2528.55 2373.81 2529.44 2373.86 2530.33L2373.86 2544.24C2373.86 2545.65 2373.89 2546.73 2373.94 2547.47 2374 2548.21 2374.17 2548.77 2374.44 2549.14 2374.71 2549.52 2375.13 2549.8 2375.69 2549.98 2376.25 2550.16 2377.04 2550.42 2378.06 2550.77L2378.06 2552.95 2363.06 2552.95 2363.06 2550.77C2363.95 2550.45 2364.66 2550.2 2365.19 2550.01 2365.73 2549.83 2366.14 2549.55 2366.43 2549.18 2366.71 2548.8 2366.89 2548.25 2366.97 2547.52 2367.05 2546.79 2367.09 2545.73 2367.09 2544.34L2367.09 2528.24C2367.09 2527.38 2367.07 2526.63 2367.04 2526 2367.01 2525.38 2366.97 2524.87 2366.92 2524.48 2366.88 2524 2366.79 2523.59 2366.66 2523.25 2366.54 2522.91 2366.32 2522.61 2366.02 2522.35 2365.71 2522.08 2365.27 2521.86 2364.72 2521.66 2364.16 2521.47 2363.43 2521.28 2362.55 2521.1L2362.55 2518.77 2371.5 2518.4 2373.93 2518.4C2373.86 2519.38 2373.78 2520.34 2373.69 2521.29 2373.6 2522.23 2373.52 2523.18 2373.45 2524.14 2373.52 2524.19 2373.59 2524.21 2373.65 2524.21 2373.72 2524.21 2373.79 2524.23 2373.86 2524.28 2375.07 2523.09 2376.17 2522.11 2377.17 2521.32 2378.18 2520.53 2379.12 2519.9 2380.01 2519.42 2380.9 2518.94 2381.76 2518.6 2382.59 2518.4 2383.42 2518.19 2384.27 2518.08 2385.14 2518.06Z" fill-rule="evenodd"/><text fill="#000000" fill-opacity="0" font-family="Arial,Arial_MSFontService,sans-serif" font-size="35.5127" x="2362.55" y="2549.13">max</text><path d="M441.5 1052.17C441.5 1018.11 469.11 990.5 503.168 990.5L785.832 990.5C819.891 990.5 847.5 1018.11 847.5 1052.17L847.5 1298.83C847.5 1332.89 819.891 1360.5 785.832 1360.5L503.168 1360.5C469.11 1360.5 441.5 1332.89 441.5 1298.83Z" stroke="#404040" stroke-width="3.00019" stroke-miterlimit="8" fill="#FFFFFF" fill-rule="evenodd"/><path d="M980.5 1052.17C980.5 1018.11 1008.11 990.5 1042.17 990.5L1324.83 990.5C1358.89 990.5 1386.5 1018.11 1386.5 1052.17L1386.5 1298.83C1386.5 1332.89 1358.89 1360.5 1324.83 1360.5L1042.17 1360.5C1008.11 1360.5 980.5 1332.89 980.5 1298.83Z" stroke="#404040" stroke-width="3.00019" stroke-miterlimit="8" fill="#FFFFFF" fill-rule="evenodd"/><path d="M1098.21 1330.38C1089.65 1312.24 1097.42 1290.6 1115.56 1282.05 1133.7 1273.49 1155.34 1281.26 1163.9 1299.4 1172.45 1317.54 1164.69 1339.18 1146.55 1347.74 1128.41 1356.29 1106.77 1348.52 1098.21 1330.38Z" fill="#7F7F7F" fill-rule="evenodd"/><path d="M1311.09 1151.49C1320.5 1143.52 1334.58 1144.69 1342.55 1154.09 1350.52 1163.5 1349.36 1177.59 1339.95 1185.56 1330.54 1193.53 1316.46 1192.36 1308.49 1182.95 1300.52 1173.55 1301.68 1159.46 1311.09 1151.49Z" fill="#7F7F7F" fill-rule="evenodd"/><path d="M998.375 1167.31C1011.22 1148.15 1037.16 1143.03 1056.31 1155.88 1075.47 1168.72 1080.59 1194.66 1067.74 1213.82 1054.9 1232.97 1028.96 1238.09 1009.8 1225.25 990.649 1212.4 985.532 1186.46 998.375 1167.31Z" fill="#7F7F7F" fill-rule="evenodd"/><path d="M1291 1302C1291 1292.06 1299.06 1284 1309 1284 1318.94 1284 1327 1292.06 1327 1302 1327 1311.94 1318.94 1320 1309 1320 1299.06 1320 1291 1311.94 1291 1302Z" fill="#7F7F7F" fill-rule="evenodd"/><path d="M1141.19 1173.14C1135.18 1147.98 1150.71 1122.72 1175.87 1116.71 1201.02 1110.71 1226.28 1126.23 1232.29 1151.39 1238.3 1176.54 1222.77 1201.81 1197.61 1207.81 1172.46 1213.82 1147.2 1198.29 1141.19 1173.14Z" fill="#7F7F7F" fill-rule="evenodd"/><path d="M1109.06 1010.97C1120.41 994.042 1143.34 989.519 1160.27 1000.87 1177.21 1012.22 1181.73 1035.15 1170.38 1052.08 1159.02 1069.01 1136.1 1073.54 1119.17 1062.18 1102.23 1050.83 1097.71 1027.9 1109.06 1010.97Z" fill="#7F7F7F" fill-rule="evenodd"/><path d="M2033.5 1054.17C2033.5 1020.11 2061.11 992.5 2095.17 992.5L2377.83 992.5C2411.89 992.5 2439.5 1020.11 2439.5 1054.17L2439.5 1300.83C2439.5 1334.89 2411.89 1362.5 2377.83 1362.5L2095.17 1362.5C2061.11 1362.5 2033.5 1334.89 2033.5 1300.83Z" stroke="#404040" stroke-width="3.00019" stroke-miterlimit="8" fill="#FFFFFF" fill-rule="evenodd"/><path d="M0 17.0503C-2.17073e-15 7.63369 7.63369-2.17073e-15 17.0503-4.34147e-15 26.467-8.68294e-15 34.1007 7.63369 34.1007 17.0503 34.1007 26.467 26.467 34.1007 17.0503 34.1007 7.63369 34.1007-1.08537e-14 26.467 0 17.0503Z" fill="#7F7F7F" fill-rule="evenodd" transform="matrix(-0.904429 0.426625 0.426625 0.904429 2187.81 1292.8)"/><path d="M2367.62 1158.97C2374.73 1152.94 2385.38 1153.82 2391.4 1160.93 2397.43 1168.04 2396.55 1178.69 2389.44 1184.72 2382.32 1190.74 2371.67 1189.86 2365.65 1182.75 2359.62 1175.64 2360.51 1164.99 2367.62 1158.97Z" fill="#7F7F7F" fill-rule="evenodd"/><path d="M2055.96 1169.26C2069.87 1148.52 2097.96 1142.97 2118.71 1156.88 2139.45 1170.79 2145 1198.89 2131.09 1219.64 2117.18 1240.38 2089.08 1245.92 2068.33 1232.01 2047.59 1218.1 2042.05 1190.01 2055.96 1169.26Z" fill="#7F7F7F" fill-rule="evenodd"/><path d="M2350 1308C2350 1301.92 2354.7 1297 2360.5 1297 2366.3 1297 2371 1301.92 2371 1308 2371 1314.08 2366.3 1319 2360.5 1319 2354.7 1319 2350 1314.08 2350 1308Z" fill="#7F7F7F" fill-rule="evenodd"/><path d="M2189.44 1169.52C2181.19 1134.96 2202.52 1100.26 2237.08 1092.01 2271.64 1083.76 2306.34 1105.08 2314.59 1139.64 2322.85 1174.2 2301.52 1208.91 2266.96 1217.16 2232.4 1225.41 2197.7 1204.08 2189.44 1169.52Z" fill="#7F7F7F" fill-rule="evenodd"/><path d="M2162.41 1024.36C2168.8 1014.84 2181.69 1012.3 2191.21 1018.68 2200.73 1025.07 2203.27 1037.96 2196.89 1047.48 2190.51 1057 2177.62 1059.54 2168.09 1053.16 2158.57 1046.78 2156.03 1033.89 2162.41 1024.36Z" fill="#7F7F7F" fill-rule="evenodd"/><path d="M573.51 1064.84C566.589 1046.92 575.507 1026.78 593.428 1019.86 611.349 1012.94 631.488 1021.86 638.409 1039.78 645.33 1057.7 636.412 1077.84 618.491 1084.76 600.57 1091.68 580.431 1082.76 573.51 1064.84Z" fill="#7F7F7F" fill-rule="evenodd"/><path d="M1736.4 1180.22C1739.51 1180.22 1742.12 1181.31 1744.22 1183.5 1746.31 1185.68 1747.36 1188.45 1747.36 1191.81 1747.36 1195.16 1746.31 1197.93 1744.22 1200.12 1742.12 1202.3 1739.51 1203.4 1736.4 1203.4 1733.28 1203.4 1730.68 1202.3 1728.58 1200.12 1726.49 1197.93 1725.44 1195.16 1725.44 1191.81 1725.44 1188.45 1726.49 1185.68 1728.58 1183.5 1730.68 1181.31 1733.28 1180.22 1736.4 1180.22ZM1681.95 1180.22C1685.07 1180.22 1687.67 1181.31 1689.77 1183.5 1691.87 1185.68 1692.91 1188.45 1692.91 1191.81 1692.91 1195.16 1691.87 1197.93 1689.77 1200.12 1687.67 1202.3 1685.07 1203.4 1681.95 1203.4 1678.84 1203.4 1676.23 1202.3 1674.14 1200.12 1672.04 1197.93 1670.99 1195.16 1670.99 1191.81 1670.99 1188.45 1672.04 1185.68 1674.14 1183.5 1676.23 1181.31 1678.84 1180.22 1681.95 1180.22ZM1627.51 1180.22C1630.62 1180.22 1633.23 1181.31 1635.32 1183.5 1637.42 1185.68 1638.47 1188.45 1638.47 1191.81 1638.47 1195.16 1637.42 1197.93 1635.32 1200.12 1633.23 1202.3 1630.62 1203.4 1627.51 1203.4 1624.39 1203.4 1621.79 1202.3 1619.69 1200.12 1617.6 1197.93 1616.55 1195.16 1616.55 1191.81 1616.55 1188.45 1617.6 1185.68 1619.69 1183.5 1621.79 1181.31 1624.39 1180.22 1627.51 1180.22Z" fill-rule="evenodd"/><text fill="#000000" fill-opacity="0" font-family="Arial,Arial_MSFontService,sans-serif" font-size="23.1797" x="1616.55" y="1200.5">â‹¯</text><path d="M1736.36 1694.2C1739.47 1694.2 1742.08 1695.29 1744.17 1697.48 1746.27 1699.67 1747.32 1702.44 1747.32 1705.79 1747.32 1709.14 1746.27 1711.91 1744.17 1714.1 1742.08 1716.29 1739.47 1717.38 1736.36 1717.38 1733.24 1717.38 1730.64 1716.29 1728.54 1714.1 1726.44 1711.91 1725.4 1709.14 1725.4 1705.79 1725.4 1702.44 1726.44 1699.67 1728.54 1697.48 1730.64 1695.29 1733.24 1694.2 1736.36 1694.2ZM1681.91 1694.2C1685.03 1694.2 1687.63 1695.29 1689.73 1697.48 1691.82 1699.67 1692.87 1702.44 1692.87 1705.79 1692.87 1709.14 1691.82 1711.91 1689.73 1714.1 1687.63 1716.29 1685.03 1717.38 1681.91 1717.38 1678.8 1717.38 1676.19 1716.29 1674.1 1714.1 1672 1711.91 1670.95 1709.14 1670.95 1705.79 1670.95 1702.44 1672 1699.67 1674.1 1697.48 1676.19 1695.29 1678.8 1694.2 1681.91 1694.2ZM1627.47 1694.2C1630.58 1694.2 1633.19 1695.29 1635.28 1697.48 1637.38 1699.67 1638.43 1702.44 1638.43 1705.79 1638.43 1709.14 1637.38 1711.91 1635.28 1714.1 1633.19 1716.29 1630.58 1717.38 1627.47 1717.38 1624.35 1717.38 1621.75 1716.29 1619.65 1714.1 1617.55 1711.91 1616.51 1709.14 1616.51 1705.79 1616.51 1702.44 1617.55 1699.67 1619.65 1697.48 1621.75 1695.29 1624.35 1694.2 1627.47 1694.2Z" fill-rule="evenodd"/><text fill="#000000" fill-opacity="0" font-family="Arial,Arial_MSFontService,sans-serif" font-size="23.1797" x="1616.51" y="1714.48">â‹¯</text><path d="M1521.72 1410.98 1506.67 1397.03 1405.6 1506.1 1375.5 1478.21 1476.57 1369.14 1461.52 1355.19 1519.52 1352.98Z" fill="#7C96EB" fill-rule="evenodd"/><path d="M134.157 1661.61C130.782 1661.61 127.634 1662.81 124.712 1665.22 121.79 1667.62 119.227 1671.06 117.024 1675.53 114.821 1680 113.11 1684.91 111.891 1690.25 110.673 1695.59 110.063 1700.31 110.063 1704.41 110.063 1714.06 113.579 1718.89 120.61 1718.89 124.954 1718.89 128.938 1716.87 132.563 1712.82 136.188 1708.77 139.11 1703.17 141.329 1696.02 143.548 1688.86 144.657 1682.17 144.657 1675.95 144.657 1671.3 143.798 1667.74 142.079 1665.29 140.36 1662.84 137.72 1661.61 134.157 1661.61ZM134.673 1657.48C140.704 1657.48 145.352 1659.23 148.618 1662.73 151.884 1666.23 153.516 1671.3 153.516 1677.92 153.516 1682.3 152.829 1687.19 151.454 1692.59 150.079 1698 148.188 1702.77 145.782 1706.91 143.376 1711.05 140.587 1714.39 137.415 1716.92 134.243 1719.45 130.798 1721.2 127.079 1722.17 127.798 1724.45 128.47 1726.34 129.095 1727.82 129.72 1729.3 130.321 1730.51 130.899 1731.43 131.477 1732.35 132.048 1733.04 132.61 1733.49 133.173 1733.95 133.735 1734.25 134.298 1734.41 134.86 1734.56 135.516 1734.64 136.266 1734.64 137.454 1734.64 138.657 1734.3 139.876 1733.61 141.095 1732.92 142.454 1731.73 143.954 1730.05L146.391 1732.67C143.891 1735.39 141.563 1737.31 139.407 1738.44 137.251 1739.56 135.032 1740.12 132.751 1740.12 130.157 1740.12 128.04 1739.55 126.399 1738.39 124.759 1737.23 123.337 1735.39 122.134 1732.86 120.93 1730.33 119.766 1727.02 118.641 1722.92 112.985 1722.61 108.673 1720.73 105.704 1717.3 102.735 1713.86 101.251 1709.02 101.251 1702.77 101.251 1698.08 102.04 1692.78 103.618 1686.88 105.196 1680.97 107.477 1675.76 110.462 1671.24 113.446 1666.73 117.009 1663.3 121.149 1660.98 125.29 1658.65 129.798 1657.48 134.673 1657.48Z" fill-rule="evenodd"/><text fill="#000000" fill-opacity="0" font-family="Arial,Arial_MSFontService,sans-serif" font-size="82.6406" x="101.251" y="1729.79">ğ‘„</text><path d="M199.537 1654.48 200.803 1658.09C193.49 1660.5 188.076 1665.2 184.561 1672.18 181.045 1679.16 179.287 1687.94 179.287 1698.5 179.287 1709.44 181.045 1718.45 184.561 1725.55 188.076 1732.64 193.443 1737.39 200.662 1739.8L199.537 1743.41C190.381 1741 183.365 1735.82 178.49 1727.87 173.615 1719.91 171.178 1710.28 171.178 1698.97 171.178 1687.69 173.623 1678.05 178.514 1670.07 183.404 1662.09 190.412 1656.89 199.537 1654.48Z" fill-rule="evenodd"/><text fill="#000000" fill-opacity="0" font-family="Arial,Arial_MSFontService,sans-serif" font-size="88.9219" x="171.178" y="1732.29">(</text><path d="M232.529 1680.31C229.342 1680.31 226.482 1681.6 223.951 1684.18 221.42 1686.76 219.428 1690.23 217.975 1694.61 216.522 1698.98 215.795 1703.34 215.795 1707.69 215.795 1710.94 216.24 1713.37 217.131 1714.98 218.022 1716.59 219.514 1717.39 221.607 1717.39 222.576 1717.39 223.561 1717.18 224.561 1716.76 225.561 1716.34 226.6 1715.66 227.678 1714.72 228.756 1713.78 229.818 1712.64 230.865 1711.3 231.912 1709.95 232.873 1708.6 233.748 1707.24 234.623 1705.88 235.436 1704.27 236.186 1702.41 236.936 1700.55 237.576 1698.31 238.107 1695.69L238.529 1693.67C238.998 1691.42 239.232 1689.3 239.232 1687.3 239.232 1684.86 238.717 1683.09 237.686 1681.98 236.654 1680.87 234.936 1680.31 232.529 1680.31ZM252.17 1655.19 254.936 1655.19 243.264 1707.08C242.576 1710.14 242.232 1712.45 242.232 1714.02 242.232 1715.27 242.436 1716.17 242.842 1716.73 243.248 1717.3 243.889 1717.58 244.764 1717.58 245.701 1717.58 246.701 1717.2 247.764 1716.43 248.826 1715.66 250.326 1714.2 252.264 1712.05L254.936 1714.67C252.061 1717.7 249.639 1719.84 247.67 1721.09 245.701 1722.34 243.576 1722.97 241.295 1722.97 239.357 1722.97 237.811 1722.33 236.654 1721.05 235.498 1719.77 234.92 1718.06 234.92 1715.94 234.92 1714.22 235.279 1712.39 235.998 1710.45L235.389 1710.27C232.389 1714.64 229.545 1717.84 226.857 1719.88 224.17 1721.91 221.326 1722.92 218.326 1722.92 214.889 1722.92 212.225 1721.62 210.334 1719.03 208.443 1716.44 207.498 1712.8 207.498 1708.11 207.498 1702.73 208.553 1697.57 210.662 1692.62 212.772 1687.66 215.67 1683.76 219.357 1680.9 223.045 1678.04 227.154 1676.61 231.686 1676.61 233.592 1676.61 235.35 1676.8 236.959 1677.2 238.568 1677.59 240.217 1678.27 241.904 1679.23L244.342 1668.41C244.592 1667.38 244.811 1666.23 244.998 1664.98 245.186 1663.73 245.279 1662.64 245.279 1661.7 245.279 1660.77 245.107 1660.05 244.764 1659.57 244.42 1659.09 243.928 1658.73 243.287 1658.52 242.647 1658.3 241.498 1658.14 239.842 1658.05L240.404 1655.61Z" fill-rule="evenodd"/><text fill="#000000" fill-opacity="0" font-family="Arial,Arial_MSFontService,sans-serif" font-size="67.7812" x="207.498" y="1714.5">ğ‘‘</text><path d="M264.34 1654.48C273.465 1656.89 280.473 1662.09 285.364 1670.07 290.254 1678.05 292.7 1687.69 292.7 1698.97 292.7 1710.28 290.262 1719.91 285.387 1727.87 280.512 1735.82 273.496 1741 264.34 1743.41L263.215 1739.8C270.434 1737.39 275.801 1732.64 279.317 1725.55 282.832 1718.45 284.59 1709.44 284.59 1698.5 284.59 1687.94 282.84 1679.16 279.34 1672.18 275.84 1665.2 270.418 1660.5 263.075 1658.09Z" fill-rule="evenodd"/><text fill="#000000" fill-opacity="0" font-family="Arial,Arial_MSFontService,sans-serif" font-size="88.9219" x="263.075" y="1732.29">)</text><path d="M295.467 1137.26 296.686 1137.26C304.03 1137.41 309.522 1139.57 313.163 1143.73 316.803 1147.88 318.623 1154.48 318.623 1163.51 318.623 1166.85 318.256 1170.65 317.522 1174.9 316.788 1179.15 316.42 1181.99 316.42 1183.43 316.42 1186.21 317.163 1188.47 318.647 1190.2 320.131 1191.94 322.373 1192.87 325.373 1192.99L325.373 1196.84C322.373 1196.96 320.131 1197.88 318.647 1199.6 317.163 1201.32 316.42 1203.56 316.42 1206.31 316.42 1207.74 316.788 1210.56 317.522 1214.77 318.256 1218.97 318.623 1222.73 318.623 1226.04 318.623 1235.41 316.803 1242.16 313.163 1246.27 309.522 1250.38 304.03 1252.51 296.686 1252.66L295.467 1252.66 295.467 1249.1 296.17 1249.1C300.702 1249.1 304.248 1247.59 306.811 1244.56 309.373 1241.52 310.655 1235.95 310.655 1227.82 310.655 1225.04 310.342 1221.58 309.717 1217.44 309.092 1213.3 308.78 1210.34 308.78 1208.56 308.78 1205.15 309.561 1202.35 311.123 1200.16 312.686 1197.98 314.545 1196.37 316.702 1195.34L316.702 1194.49C314.545 1193.43 312.686 1191.8 311.123 1189.59 309.561 1187.39 308.78 1184.57 308.78 1181.13 308.78 1179.32 309.092 1176.33 309.717 1172.16 310.342 1167.98 310.655 1164.48 310.655 1161.63 310.655 1153.88 309.373 1148.48 306.811 1145.41 304.248 1142.35 300.702 1140.82 296.17 1140.82L295.467 1140.82ZM89.4802 1137.26 90.699 1137.26 90.699 1140.82 89.9959 1140.82C85.4646 1140.82 81.9177 1142.35 79.3552 1145.41 76.7927 1148.48 75.5115 1153.88 75.5115 1161.63 75.5115 1164.48 75.824 1167.98 76.449 1172.16 77.074 1176.33 77.3865 1179.32 77.3865 1181.13 77.3865 1184.57 76.6052 1187.39 75.0427 1189.59 73.4802 1191.8 71.6209 1193.43 69.4646 1194.49L69.4646 1195.34C71.6209 1196.37 73.4802 1197.98 75.0427 1200.16 76.6052 1202.35 77.3865 1205.15 77.3865 1208.56 77.3865 1210.34 77.074 1213.3 76.449 1217.44 75.824 1221.58 75.5115 1225.04 75.5115 1227.82 75.5115 1235.95 76.7927 1241.52 79.3552 1244.56 81.9177 1247.59 85.4646 1249.1 89.9959 1249.1L90.699 1249.1 90.699 1252.66 89.4802 1252.66C82.1365 1252.51 76.6443 1250.38 73.0037 1246.27 69.3631 1242.16 67.5427 1235.41 67.5427 1226.04 67.5427 1222.73 67.9099 1218.97 68.6443 1214.77 69.3787 1210.56 69.7459 1207.74 69.7459 1206.31 69.7459 1203.56 69.0037 1201.32 67.5193 1199.6 66.0349 1197.88 63.7927 1196.96 60.7927 1196.84L60.7927 1192.99C63.7927 1192.87 66.0349 1191.94 67.5193 1190.2 69.0037 1188.47 69.7459 1186.21 69.7459 1183.43 69.7459 1181.99 69.3787 1179.15 68.6443 1174.9 67.9099 1170.65 67.5427 1166.85 67.5427 1163.51 67.5427 1154.48 69.3631 1147.88 73.0037 1143.73 76.6443 1139.57 82.1365 1137.41 89.4802 1137.26Z" fill-rule="evenodd"/><path d="M108.281 1176.77C110.25 1176.77 111.804 1177.42 112.945 1178.71 114.086 1180.01 114.656 1181.7 114.656 1183.8 114.656 1185.52 114.297 1187.35 113.578 1189.28L114.14 1189.47C117.015 1185.19 119.875 1182.01 122.718 1179.93 125.562 1177.85 128.437 1176.81 131.343 1176.81 134.343 1176.81 136.625 1177.67 138.187 1179.37 139.75 1181.07 140.531 1183.53 140.531 1186.75L140.531 1187.41C140.531 1187.63 140.515 1187.86 140.484 1188.11 143.172 1184.3 145.851 1181.46 148.523 1179.6 151.195 1177.74 153.968 1176.81 156.843 1176.81 159.718 1176.81 161.937 1177.64 163.5 1179.3 165.062 1180.95 165.843 1183.28 165.843 1186.28 165.843 1188.25 165.39 1191.05 164.484 1194.67L161.437 1206.95C160.593 1210.36 160.172 1212.77 160.172 1214.17 160.172 1215.42 160.375 1216.33 160.781 1216.89 161.187 1217.45 161.828 1217.74 162.703 1217.74 163.64 1217.74 164.64 1217.35 165.703 1216.59 166.765 1215.82 168.265 1214.36 170.203 1212.2L172.875 1214.83C170.187 1217.67 167.843 1219.77 165.843 1221.11 163.843 1222.45 161.562 1223.13 159 1223.13 156.968 1223.13 155.343 1222.4 154.125 1220.95 152.906 1219.49 152.297 1217.64 152.297 1215.39 152.297 1213.36 152.812 1210.38 153.843 1206.44L155.906 1198.33C156.656 1195.39 157.148 1193.22 157.383 1191.81 157.617 1190.41 157.734 1189.27 157.734 1188.39 157.734 1186.24 157.375 1184.68 156.656 1183.73 155.937 1182.78 154.765 1182.3 153.14 1182.3 151.828 1182.3 150.422 1182.79 148.922 1183.78 147.422 1184.76 145.843 1186.29 144.187 1188.37 142.531 1190.45 141.179 1192.49 140.133 1194.51 139.086 1196.53 138.25 1198.99 137.625 1201.89L133.359 1222.38 125.25 1222.38 130.64 1198.56C131.297 1195.66 131.742 1193.51 131.976 1192.12 132.211 1190.73 132.328 1189.53 132.328 1188.53 132.328 1186.28 131.929 1184.68 131.133 1183.73 130.336 1182.78 129.093 1182.3 127.406 1182.3 126.218 1182.3 124.867 1182.79 123.351 1183.78 121.836 1184.76 120.218 1186.34 118.5 1188.51 116.781 1190.68 115.437 1192.77 114.468 1194.77 113.5 1196.77 112.687 1199.2 112.031 1202.08L107.578 1222.38 99.4684 1222.38 106.312 1192.66C107 1189.66 107.343 1187.35 107.343 1185.72 107.343 1184.47 107.14 1183.56 106.734 1183 106.328 1182.44 105.687 1182.16 104.812 1182.16 103.843 1182.16 102.82 1182.56 101.742 1183.35 100.664 1184.15 99.1872 1185.6 97.3122 1187.69L94.6403 1185.06C97.3903 1182.19 99.7575 1180.09 101.742 1178.76 103.726 1177.43 105.906 1176.77 108.281 1176.77Z" fill-rule="evenodd"/><text fill="#000000" fill-opacity="0" font-family="Arial,Arial_MSFontService,sans-serif" font-size="46.3594" x="94.6403" y="1217.33">ğ‘š</text><path d="M190.427 1211.58 192.102 1211.58 187.043 1234.34C186.724 1235.68 186.502 1236.75 186.376 1237.55 186.251 1238.35 186.188 1239.07 186.188 1239.71 186.188 1240.57 186.365 1241.2 186.718 1241.59 187.071 1241.97 187.601 1242.17 188.308 1242.17 188.718 1242.17 189.128 1242.09 189.538 1241.93 189.948 1241.77 190.387 1241.52 190.854 1241.18 191.321 1240.83 191.834 1240.4 192.392 1239.86 192.95 1239.32 193.571 1238.68 194.255 1237.93L196.579 1240.18C195.394 1241.39 194.318 1242.41 193.349 1243.24 192.381 1244.07 191.464 1244.75 190.598 1245.28 189.732 1245.8 188.883 1246.18 188.051 1246.4 187.22 1246.63 186.337 1246.75 185.402 1246.75 184.536 1246.75 183.756 1246.59 183.061 1246.27 182.366 1245.95 181.768 1245.51 181.267 1244.95 180.765 1244.39 180.378 1243.73 180.104 1242.95 179.831 1242.18 179.694 1241.32 179.694 1240.39 179.694 1239.64 179.785 1238.7 179.968 1237.59 180.15 1236.47 180.384 1235.26 180.668 1233.95 180.953 1232.64 181.267 1231.26 181.608 1229.83 181.95 1228.39 182.286 1226.97 182.617 1225.56 182.947 1224.14 183.243 1222.78 183.505 1221.47 183.767 1220.16 183.955 1218.97 184.069 1217.9 184.115 1217.72 184.138 1217.54 184.138 1217.37 184.138 1217.2 184.138 1217.04 184.138 1216.91 184.092 1216.02 183.779 1215.37 183.198 1214.96 182.617 1214.55 181.586 1214.32 180.104 1214.28L180.515 1211.95ZM188.444 1197.8 195.28 1197.8 193.605 1205.15 186.838 1205.15Z" fill-rule="evenodd"/><text fill="#000000" fill-opacity="0" font-family="Arial,Arial_MSFontService,sans-serif" font-size="48.9453" x="179.694" y="1240.63">ğ‘–</text><path d="M196.647 1151.55C193.73 1151.55 191.48 1152.77 189.896 1155.21 188.313 1157.65 187.521 1161.12 187.521 1165.64 187.521 1167.98 187.726 1170.07 188.136 1171.89 188.546 1173.71 189.144 1175.25 189.931 1176.51 190.717 1177.76 191.679 1178.72 192.819 1179.38 193.958 1180.04 195.257 1180.37 196.715 1180.37 198.356 1180.37 199.752 1179.99 200.902 1179.24 202.053 1178.49 202.982 1177.48 203.688 1176.21 204.394 1174.95 204.907 1173.48 205.226 1171.81 205.545 1170.13 205.705 1168.37 205.705 1166.52 205.705 1163.93 205.471 1161.69 205.004 1159.81 204.537 1157.93 203.899 1156.38 203.09 1155.16 202.281 1153.94 201.324 1153.03 200.219 1152.44 199.114 1151.85 197.923 1151.55 196.647 1151.55ZM220.976 1148.89 231.948 1148.89 231.948 1166.73C231.948 1169.19 232.027 1171.22 232.187 1172.81 232.346 1174.41 232.648 1175.67 233.093 1176.59 233.537 1177.51 234.169 1178.15 234.99 1178.5 235.81 1178.86 236.892 1179.03 238.237 1179.03 239.125 1179.03 240.071 1178.82 241.074 1178.38 242.076 1177.95 242.993 1177.38 243.825 1176.68 244.657 1175.97 245.346 1175.16 245.893 1174.25 246.44 1173.34 246.713 1172.41 246.713 1171.48L246.713 1157.5C246.713 1156.2 246.685 1155.19 246.628 1154.48 246.571 1153.76 246.406 1153.19 246.132 1152.78 245.859 1152.37 245.443 1152.06 244.885 1151.84 244.326 1151.63 243.546 1151.37 242.543 1151.08L242.543 1148.89 253.413 1148.89 253.413 1173.67C253.413 1174.83 253.407 1175.81 253.395 1176.61 253.384 1177.41 253.498 1178.07 253.737 1178.59 253.976 1179.11 254.421 1179.54 255.07 1179.87 255.72 1180.2 256.705 1180.48 258.027 1180.71L258.027 1183.07 249.243 1183.41 246.782 1183.41C246.85 1182.45 246.907 1181.51 246.953 1180.57 246.998 1179.64 247.044 1178.69 247.089 1177.74 246.998 1177.69 246.918 1177.67 246.85 1177.67 246.782 1177.67 246.713 1177.64 246.645 1177.6 245.574 1178.74 244.56 1179.7 243.603 1180.47 242.646 1181.24 241.712 1181.87 240.8 1182.35 239.889 1182.83 238.983 1183.17 238.083 1183.38 237.183 1183.58 236.243 1183.68 235.263 1183.68 233.554 1183.66 232.062 1183.43 230.786 1183 229.51 1182.57 228.456 1181.87 227.624 1180.91 226.792 1179.96 226.166 1178.72 225.744 1177.19 225.323 1175.66 225.1 1173.78 225.078 1171.55L225.078 1157.5C225.078 1156.25 225.072 1155.27 225.06 1154.56 225.049 1153.86 224.924 1153.3 224.684 1152.9 224.445 1152.51 224.046 1152.19 223.488 1151.95 222.93 1151.71 222.093 1151.42 220.976 1151.08ZM196.784 1148.17C199.632 1148.17 202.081 1148.59 204.132 1149.43 206.183 1150.28 207.869 1151.46 209.191 1152.99 210.512 1154.52 211.487 1156.35 212.113 1158.49 212.74 1160.63 213.053 1162.99 213.053 1165.57 213.053 1168.53 212.66 1171.14 211.874 1173.39 211.088 1175.65 209.96 1177.54 208.49 1179.07 207.02 1180.6 205.249 1181.75 203.175 1182.52 201.102 1183.3 198.789 1183.68 196.237 1183.68 193.707 1183.68 191.446 1183.33 189.452 1182.62 187.458 1181.92 185.766 1180.84 184.376 1179.39 182.986 1177.95 181.927 1176.13 181.198 1173.94 180.469 1171.75 180.104 1169.18 180.104 1166.22 180.104 1163.28 180.525 1160.69 181.369 1158.44 182.212 1156.2 183.379 1154.31 184.872 1152.78 186.365 1151.26 188.125 1150.11 190.153 1149.33 192.181 1148.56 194.391 1148.17 196.784 1148.17ZM270.274 1140.21 275.879 1140.21 275.879 1148.89 287.842 1148.89 287.842 1152.68 275.879 1152.68 275.879 1168.99C275.902 1171.08 276.027 1172.79 276.255 1174.1 276.483 1175.41 276.836 1176.43 277.315 1177.15 277.793 1177.88 278.386 1178.38 279.092 1178.64 279.799 1178.9 280.642 1179.03 281.622 1179.03 282.601 1179.03 283.564 1178.81 284.51 1178.37 285.455 1177.92 286.384 1177.33 287.295 1176.57 287.614 1176.98 287.911 1177.39 288.184 1177.8 288.457 1178.21 288.742 1178.62 289.039 1179.03 287.147 1180.65 285.393 1181.83 283.775 1182.57 282.157 1183.31 280.516 1183.68 278.853 1183.68 275.549 1183.68 273.094 1182.79 271.487 1181.02 269.881 1179.24 269.078 1176.46 269.078 1172.68L269.078 1152.68 263.643 1152.68 263.643 1150.6C264.372 1150.48 265.033 1150.31 265.625 1150.07 266.218 1149.83 266.742 1149.55 267.198 1149.23 267.608 1148.93 267.961 1148.58 268.257 1148.17 268.553 1147.76 268.816 1147.22 269.043 1146.56 269.271 1145.9 269.482 1145.06 269.676 1144.03 269.869 1143.01 270.069 1141.73 270.274 1140.21Z" fill-rule="evenodd"/><text fill="#000000" fill-opacity="0" font-family="Arial,Arial_MSFontService,sans-serif" font-size="43.4766" x="180.104" y="1178.25">out</text><path d="M2198 1436.5 2218.25 1436.5 2218.25 1373 2258.75 1373 2258.75 1436.5 2279 1436.5 2238.5 1477Z" fill="#7C96EB" fill-rule="evenodd"/><path d="M449.5 2072.17C449.5 2038.11 477.11 2010.5 511.168 2010.5L793.832 2010.5C827.891 2010.5 855.5 2038.11 855.5 2072.17L855.5 2318.83C855.5 2352.89 827.891 2380.5 793.832 2380.5L511.168 2380.5C477.11 2380.5 449.5 2352.89 449.5 2318.83Z" stroke="#404040" stroke-width="3.00019" stroke-miterlimit="8" fill="#FFFFFF" fill-rule="evenodd"/><path d="M988.5 2072.17C988.5 2038.11 1016.11 2010.5 1050.17 2010.5L1331.83 2010.5C1365.89 2010.5 1393.5 2038.11 1393.5 2072.17L1393.5 2318.83C1393.5 2352.89 1365.89 2380.5 1331.83 2380.5L1050.17 2380.5C1016.11 2380.5 988.5 2352.89 988.5 2318.83Z" stroke="#404040" stroke-width="3.00019" stroke-miterlimit="8" fill="#FFFFFF" fill-rule="evenodd"/><path d="M1103.98 2345.24C1094.42 2324.98 1103.1 2300.81 1123.36 2291.25 1143.63 2281.69 1167.8 2290.37 1177.36 2310.63 1186.92 2330.89 1178.24 2355.07 1157.98 2364.63 1137.72 2374.19 1113.54 2365.51 1103.98 2345.24Z" fill="#7F7F7F" fill-rule="evenodd"/><path d="M1317.14 2172.72C1325.69 2165.48 1338.48 2166.54 1345.72 2175.09 1352.96 2183.63 1351.91 2196.43 1343.36 2203.67 1334.81 2210.91 1322.02 2209.85 1314.78 2201.31 1307.54 2192.76 1308.59 2179.96 1317.14 2172.72Z" fill="#7F7F7F" fill-rule="evenodd"/><path d="M1017.76 2195.11C1026.24 2182.46 1043.38 2179.08 1056.03 2187.56 1068.69 2196.04 1072.07 2213.18 1063.58 2225.84 1055.1 2238.49 1037.96 2241.87 1025.31 2233.39 1012.65 2224.9 1009.27 2207.77 1017.76 2195.11Z" fill="#7F7F7F" fill-rule="evenodd"/><path d="M1274 2321.5C1274 2297.48 1293.25 2278 1317 2278 1340.75 2278 1360 2297.48 1360 2321.5 1360 2345.52 1340.75 2365 1317 2365 1293.25 2365 1274 2345.52 1274 2321.5Z" fill="#7F7F7F" fill-rule="evenodd"/><path d="M1157.2 2191.04C1152.3 2170.53 1164.97 2149.92 1185.48 2145.03 1206 2140.13 1226.6 2152.79 1231.5 2173.31 1236.4 2193.82 1223.74 2214.42 1203.22 2219.32 1182.7 2224.22 1162.1 2211.56 1157.2 2191.04Z" fill="#7F7F7F" fill-rule="evenodd"/><path d="M1110.81 2037.12C1124.33 2016.95 1151.65 2011.56 1171.82 2025.08 1191.99 2038.61 1197.38 2065.92 1183.85 2086.09 1170.33 2106.26 1143.01 2111.65 1122.84 2098.13 1102.67 2084.6 1097.28 2057.29 1110.81 2037.12Z" fill="#7F7F7F" fill-rule="evenodd"/><path d="M2041.5 2074.17C2041.5 2040.11 2069.11 2012.5 2103.17 2012.5L2384.83 2012.5C2418.89 2012.5 2446.5 2040.11 2446.5 2074.17L2446.5 2320.83C2446.5 2354.89 2418.89 2382.5 2384.83 2382.5L2103.17 2382.5C2069.11 2382.5 2041.5 2354.89 2041.5 2320.83Z" stroke="#404040" stroke-width="3.00019" stroke-miterlimit="8" fill="#FFFFFF" fill-rule="evenodd"/><path d="M2141.45 2345.17C2129.52 2319.87 2140.35 2289.67 2165.66 2277.74 2190.97 2265.8 2221.16 2276.64 2233.09 2301.94 2245.03 2327.25 2234.19 2357.44 2208.89 2369.38 2183.58 2381.31 2153.39 2370.48 2141.45 2345.17Z" fill="#7F7F7F" fill-rule="evenodd"/><path d="M2373.41 2180.42C2379.51 2175.25 2388.65 2176.01 2393.82 2182.11 2399 2188.22 2398.24 2197.36 2392.14 2202.53 2386.03 2207.7 2376.89 2206.95 2371.72 2200.84 2366.54 2194.74 2367.3 2185.59 2373.41 2180.42Z" fill="#7F7F7F" fill-rule="evenodd"/><path d="M2087.82 2205.44C2092.75 2198.09 2102.7 2196.12 2110.05 2201.05 2117.41 2205.98 2119.37 2215.93 2114.44 2223.29 2109.51 2230.64 2099.56 2232.6 2092.21 2227.67 2084.86 2222.74 2082.89 2212.79 2087.82 2205.44Z" fill="#7F7F7F" fill-rule="evenodd"/><path d="M2320 2328.5C2320 2301.71 2341.49 2280 2368 2280 2394.51 2280 2416 2301.71 2416 2328.5 2416 2355.29 2394.51 2377 2368 2377 2341.49 2377 2320 2355.29 2320 2328.5Z" fill="#7F7F7F" fill-rule="evenodd"/><path d="M2227.53 2182.16C2223.3 2164.43 2234.24 2146.63 2251.97 2142.4 2269.69 2138.16 2287.5 2149.1 2291.73 2166.83 2295.96 2184.56 2285.02 2202.36 2267.29 2206.59 2249.57 2210.82 2231.76 2199.89 2227.53 2182.16Z" fill="#7F7F7F" fill-rule="evenodd"/><path d="M2148.68 2029.96C2162.97 2008.65 2191.82 2002.96 2213.13 2017.25 2234.44 2031.54 2240.14 2060.39 2225.85 2081.7 2211.56 2103.01 2182.7 2108.71 2161.39 2094.42 2140.08 2080.13 2134.39 2051.27 2148.68 2029.96Z" fill="#7F7F7F" fill-rule="evenodd"/><path d="M1744.01 2200.13C1747.12 2200.13 1749.73 2201.22 1751.83 2203.41 1753.92 2205.6 1754.97 2208.37 1754.97 2211.72 1754.97 2215.07 1753.92 2217.84 1751.83 2220.03 1749.73 2222.22 1747.12 2223.31 1744.01 2223.31 1740.9 2223.31 1738.29 2222.22 1736.19 2220.03 1734.1 2217.84 1733.05 2215.07 1733.05 2211.72 1733.05 2208.37 1734.1 2205.6 1736.19 2203.41 1738.29 2201.22 1740.9 2200.13 1744.01 2200.13ZM1689.56 2200.13C1692.68 2200.13 1695.28 2201.22 1697.38 2203.41 1699.48 2205.6 1700.53 2208.37 1700.53 2211.72 1700.53 2215.07 1699.48 2217.84 1697.38 2220.03 1695.28 2222.22 1692.68 2223.31 1689.56 2223.31 1686.45 2223.31 1683.84 2222.22 1681.75 2220.03 1679.65 2217.84 1678.6 2215.07 1678.6 2211.72 1678.6 2208.37 1679.65 2205.6 1681.75 2203.41 1683.84 2201.22 1686.45 2200.13 1689.56 2200.13ZM1635.12 2200.13C1638.23 2200.13 1640.84 2201.22 1642.94 2203.41 1645.03 2205.6 1646.08 2208.37 1646.08 2211.72 1646.08 2215.07 1645.03 2217.84 1642.94 2220.03 1640.84 2222.22 1638.23 2223.31 1635.12 2223.31 1632 2223.31 1629.4 2222.22 1627.3 2220.03 1625.21 2217.84 1624.16 2215.07 1624.16 2211.72 1624.16 2208.37 1625.21 2205.6 1627.3 2203.41 1629.4 2201.22 1632 2200.13 1635.12 2200.13Z" fill-rule="evenodd"/><text fill="#000000" fill-opacity="0" font-family="Arial,Arial_MSFontService,sans-serif" font-size="23.1797" x="1624.16" y="2220.41">â‹¯</text><path d="M916.944 2004.58 930.938 1989.58 822.186 1888.17 850.173 1858.15 958.925 1959.57 972.919 1944.56 974.944 2002.56Z" fill="#7C96EB" fill-rule="evenodd"/><path d="M1457.61 2002.08 1471.61 1987.07 1362.85 1885.66 1390.84 1855.65 1499.59 1957.06 1513.59 1942.06 1515.61 2000.06Z" fill="#7C96EB" fill-rule="evenodd"/><path d="M1214 1928 1193.5 1928 1193.5 1991 1152.5 1991 1152.5 1928 1132 1928 1173 1887Z" fill="#7C96EB" fill-rule="evenodd"/><path d="M2279 1926.5 2258.75 1926.5 2258.75 1990 2218.25 1990 2218.25 1926.5 2198 1926.5 2238.5 1886Z" fill="#7C96EB" fill-rule="evenodd"/><path d="M273 2153.17 274.218 2153.17C281.562 2153.32 287.054 2155.48 290.695 2159.63 294.336 2163.79 296.156 2170.38 296.156 2179.42 296.156 2182.76 295.789 2186.56 295.054 2190.81 294.32 2195.06 293.953 2197.9 293.953 2199.34 293.953 2202.12 294.695 2204.38 296.179 2206.11 297.664 2207.85 299.906 2208.77 302.906 2208.9L302.906 2212.74C299.906 2212.87 297.664 2213.79 296.179 2215.51 294.695 2217.23 293.953 2219.46 293.953 2222.21 293.953 2223.65 294.32 2226.47 295.054 2230.67 295.789 2234.88 296.156 2238.63 296.156 2241.95 296.156 2251.32 294.336 2258.06 290.695 2262.17 287.054 2266.28 281.562 2268.42 274.218 2268.57L273 2268.57 273 2265.01 273.703 2265.01C278.234 2265.01 281.781 2263.49 284.343 2260.46 286.906 2257.43 288.187 2251.85 288.187 2243.73 288.187 2240.95 287.875 2237.49 287.25 2233.35 286.625 2229.2 286.312 2226.24 286.312 2224.46 286.312 2221.06 287.093 2218.26 288.656 2216.07 290.218 2213.88 292.078 2212.27 294.234 2211.24L294.234 2210.4C292.078 2209.34 290.218 2207.7 288.656 2205.5 287.093 2203.3 286.312 2200.48 286.312 2197.04 286.312 2195.23 286.625 2192.24 287.25 2188.06 287.875 2183.89 288.187 2180.38 288.187 2177.54 288.187 2169.79 286.906 2164.38 284.343 2161.32 281.781 2158.26 278.234 2156.73 273.703 2156.73L273 2156.73ZM113.349 2153.17 114.568 2153.17 114.568 2156.73 113.865 2156.73C109.333 2156.73 105.786 2158.26 103.224 2161.32 100.661 2164.38 99.3802 2169.79 99.3802 2177.54 99.3802 2180.38 99.6927 2183.89 100.318 2188.06 100.943 2192.24 101.255 2195.23 101.255 2197.04 101.255 2200.48 100.474 2203.3 98.9114 2205.5 97.3489 2207.7 95.4895 2209.34 93.3333 2210.4L93.3333 2211.24C95.4895 2212.27 97.3489 2213.88 98.9114 2216.07 100.474 2218.26 101.255 2221.06 101.255 2224.46 101.255 2226.24 100.943 2229.2 100.318 2233.35 99.6927 2237.49 99.3802 2240.95 99.3802 2243.73 99.3802 2251.85 100.661 2257.43 103.224 2260.46 105.786 2263.49 109.333 2265.01 113.865 2265.01L114.568 2265.01 114.568 2268.57 113.349 2268.57C106.005 2268.42 100.513 2266.28 96.8723 2262.17 93.2317 2258.06 91.4114 2251.32 91.4114 2241.95 91.4114 2238.63 91.7786 2234.88 92.513 2230.67 93.2473 2226.47 93.6145 2223.65 93.6145 2222.21 93.6145 2219.46 92.8723 2217.23 91.388 2215.51 89.9036 2213.79 87.6614 2212.87 84.6614 2212.74L84.6614 2208.9C87.6614 2208.77 89.9036 2207.85 91.388 2206.11 92.8723 2204.38 93.6145 2202.12 93.6145 2199.34 93.6145 2197.9 93.2473 2195.06 92.513 2190.81 91.7786 2186.56 91.4114 2182.76 91.4114 2179.42 91.4114 2170.38 93.2317 2163.79 96.8723 2159.63 100.513 2155.48 106.005 2153.32 113.349 2153.17Z" fill-rule="evenodd"/><path d="M132.15 2192.67C134.118 2192.67 135.673 2193.32 136.814 2194.62 137.954 2195.92 138.525 2197.61 138.525 2199.71 138.525 2201.42 138.165 2203.25 137.446 2205.19L138.009 2205.38C140.884 2201.1 143.743 2197.92 146.587 2195.84 149.431 2193.76 152.306 2192.72 155.212 2192.72 158.212 2192.72 160.493 2193.57 162.056 2195.28 163.618 2196.98 164.4 2199.44 164.4 2202.66L164.4 2203.31C164.4 2203.53 164.384 2203.77 164.353 2204.02 167.04 2200.21 169.72 2197.37 172.392 2195.51 175.064 2193.65 177.837 2192.72 180.712 2192.72 183.587 2192.72 185.806 2193.55 187.368 2195.21 188.931 2196.86 189.712 2199.19 189.712 2202.19 189.712 2204.16 189.259 2206.96 188.353 2210.58L185.306 2222.86C184.462 2226.27 184.04 2228.67 184.04 2230.08 184.04 2231.33 184.243 2232.24 184.65 2232.8 185.056 2233.36 185.696 2233.64 186.571 2233.64 187.509 2233.64 188.509 2233.26 189.571 2232.49 190.634 2231.73 192.134 2230.27 194.071 2228.11L196.743 2230.74C194.056 2233.58 191.712 2235.67 189.712 2237.02 187.712 2238.36 185.431 2239.03 182.868 2239.03 180.837 2239.03 179.212 2238.31 177.993 2236.85 176.775 2235.4 176.165 2233.55 176.165 2231.3 176.165 2229.27 176.681 2226.28 177.712 2222.35L179.775 2214.24C180.525 2211.3 181.017 2209.13 181.251 2207.72 181.486 2206.31 181.603 2205.17 181.603 2204.3 181.603 2202.14 181.243 2200.59 180.525 2199.64 179.806 2198.68 178.634 2198.21 177.009 2198.21 175.696 2198.21 174.29 2198.7 172.79 2199.68 171.29 2200.67 169.712 2202.2 168.056 2204.28 166.4 2206.35 165.048 2208.4 164.001 2210.42 162.954 2212.43 162.118 2214.89 161.493 2217.8L157.228 2238.28 149.118 2238.28 154.509 2214.47C155.165 2211.56 155.611 2209.42 155.845 2208.03 156.079 2206.64 156.196 2205.44 156.196 2204.44 156.196 2202.19 155.798 2200.59 155.001 2199.64 154.204 2198.68 152.962 2198.21 151.275 2198.21 150.087 2198.21 148.736 2198.7 147.22 2199.68 145.704 2200.67 144.087 2202.24 142.368 2204.42 140.65 2206.59 139.306 2208.67 138.337 2210.67 137.368 2212.67 136.556 2215.11 135.9 2217.99L131.446 2238.28 123.337 2238.28 130.181 2208.56C130.868 2205.56 131.212 2203.25 131.212 2201.63 131.212 2200.38 131.009 2199.47 130.603 2198.91 130.196 2198.35 129.556 2198.06 128.681 2198.06 127.712 2198.06 126.689 2198.46 125.611 2199.26 124.532 2200.06 123.056 2201.5 121.181 2203.6L118.509 2200.97C121.259 2198.1 123.626 2195.99 125.611 2194.67 127.595 2193.34 129.775 2192.67 132.15 2192.67Z" fill-rule="evenodd"/><text fill="#000000" fill-opacity="0" font-family="Arial,Arial_MSFontService,sans-serif" font-size="46.3594" x="118.509" y="2233.24">ğ‘š</text><path d="M214.295 2227.18 215.97 2227.18 210.912 2249.94C210.593 2251.28 210.37 2252.36 210.245 2253.15 210.12 2253.95 210.057 2254.67 210.057 2255.31 210.057 2256.17 210.234 2256.8 210.587 2257.19 210.94 2257.57 211.47 2257.77 212.176 2257.77 212.586 2257.77 212.997 2257.69 213.407 2257.53 213.817 2257.37 214.256 2257.12 214.723 2256.78 215.19 2256.43 215.702 2256 216.261 2255.46 216.819 2254.92 217.44 2254.28 218.124 2253.53L220.448 2255.78C219.263 2256.99 218.186 2258.01 217.218 2258.84 216.249 2259.68 215.332 2260.35 214.466 2260.88 213.6 2261.4 212.752 2261.78 211.92 2262.01 211.088 2262.23 210.205 2262.35 209.271 2262.35 208.405 2262.35 207.625 2262.19 206.93 2261.87 206.235 2261.55 205.637 2261.11 205.135 2260.55 204.634 2259.99 204.247 2259.33 203.973 2258.55 203.7 2257.78 203.563 2256.92 203.563 2255.99 203.563 2255.24 203.654 2254.3 203.836 2253.19 204.019 2252.07 204.252 2250.86 204.537 2249.55 204.822 2248.24 205.135 2246.86 205.477 2245.43 205.819 2243.99 206.155 2242.57 206.485 2241.16 206.816 2239.74 207.112 2238.38 207.374 2237.07 207.636 2235.76 207.824 2234.57 207.938 2233.5 207.984 2233.32 208.006 2233.14 208.006 2232.97 208.006 2232.8 208.006 2232.65 208.006 2232.51 207.961 2231.62 207.647 2230.97 207.066 2230.56 206.485 2230.15 205.454 2229.92 203.973 2229.88L204.383 2227.55ZM212.313 2213.4 219.149 2213.4 217.474 2220.75 210.707 2220.75Z" fill-rule="evenodd"/><text fill="#000000" fill-opacity="0" font-family="Arial,Arial_MSFontService,sans-serif" font-size="48.9453" x="203.563" y="2256.23">ğ‘–</text><path d="M212.039 2164.73 214.5 2164.73 214.5 2190.57C214.5 2191.96 214.534 2193.01 214.602 2193.74 214.671 2194.47 214.847 2195.04 215.132 2195.44 215.417 2195.83 215.839 2196.13 216.397 2196.32 216.955 2196.52 217.724 2196.77 218.704 2197.09L218.704 2199.28 203.699 2199.28 203.699 2197.09C204.611 2196.77 205.334 2196.52 205.87 2196.34 206.405 2196.16 206.81 2195.88 207.083 2195.5 207.356 2195.13 207.533 2194.58 207.613 2193.85 207.692 2193.12 207.732 2192.06 207.732 2190.67L207.732 2174.57C207.732 2173.77 207.715 2173.09 207.681 2172.54 207.647 2171.98 207.607 2171.5 207.561 2171.12 207.516 2170.57 207.436 2170.11 207.322 2169.73 207.208 2169.36 206.997 2169.03 206.69 2168.74 206.382 2168.46 205.949 2168.21 205.391 2168.01 204.833 2167.8 204.098 2167.61 203.186 2167.43L203.186 2165.1ZM248.984 2164.38C250.671 2164.38 252.146 2164.61 253.411 2165.05 254.675 2165.49 255.729 2166.21 256.572 2167.19 257.415 2168.17 258.048 2169.42 258.469 2170.95 258.891 2172.47 259.102 2174.31 259.102 2176.45L259.102 2190.57C259.102 2191.91 259.113 2192.95 259.136 2193.68 259.158 2194.41 259.295 2194.97 259.546 2195.37 259.796 2195.77 260.207 2196.08 260.776 2196.31 261.346 2196.54 262.178 2196.8 263.271 2197.09L263.271 2199.28 248.232 2199.28 248.232 2197.09C249.167 2196.77 249.901 2196.52 250.437 2196.32 250.972 2196.13 251.377 2195.85 251.65 2195.47 251.924 2195.09 252.1 2194.55 252.18 2193.85 252.26 2193.14 252.3 2192.1 252.3 2190.74L252.3 2181.23C252.3 2178.8 252.197 2176.79 251.992 2175.22 251.787 2173.65 251.44 2172.41 250.95 2171.51 250.46 2170.61 249.81 2169.98 249.001 2169.63 248.192 2169.28 247.196 2169.1 246.011 2169.1 245.008 2169.1 244 2169.35 242.986 2169.85 241.972 2170.35 241.06 2170.97 240.251 2171.72 239.442 2172.46 238.782 2173.26 238.269 2174.14 237.756 2175.02 237.5 2175.83 237.5 2176.59L237.5 2190.57C237.5 2191.96 237.534 2193.01 237.602 2193.74 237.671 2194.47 237.847 2195.04 238.132 2195.44 238.417 2195.83 238.839 2196.13 239.397 2196.32 239.955 2196.52 240.724 2196.77 241.704 2197.09L241.704 2199.28 226.699 2199.28 226.699 2197.09C227.611 2196.77 228.334 2196.52 228.87 2196.34 229.405 2196.16 229.81 2195.88 230.083 2195.5 230.356 2195.13 230.533 2194.58 230.613 2193.85 230.692 2193.12 230.732 2192.06 230.732 2190.67L230.732 2174.57C230.732 2173.77 230.715 2173.09 230.681 2172.54 230.647 2171.98 230.607 2171.5 230.561 2171.12 230.516 2170.57 230.436 2170.11 230.322 2169.73 230.208 2169.36 229.997 2169.03 229.69 2168.74 229.382 2168.46 228.949 2168.21 228.391 2168.01 227.833 2167.8 227.098 2167.61 226.186 2167.43L226.186 2165.1 235.142 2164.73 237.568 2164.73C237.5 2165.71 237.42 2166.67 237.329 2167.61 237.238 2168.56 237.158 2169.51 237.09 2170.47 237.158 2170.51 237.227 2170.54 237.295 2170.54 237.363 2170.54 237.432 2170.56 237.5 2170.6 238.616 2169.47 239.665 2168.5 240.644 2167.72 241.624 2166.93 242.57 2166.29 243.481 2165.79 244.393 2165.28 245.299 2164.93 246.199 2164.71 247.099 2164.49 248.027 2164.38 248.984 2164.38ZM207.493 2150.95 214.705 2150.95 214.705 2158.3 207.493 2158.3Z" fill-rule="evenodd"/><text fill="#000000" fill-opacity="0" font-family="Arial,Arial_MSFontService,sans-serif" font-size="48.3301" x="203.186" y="2193.24">in</text><path d="M1058 756 1206 164 1987 164 1839 756Z" stroke="#181717" stroke-width="6.00038" stroke-miterlimit="8" fill="none" fill-rule="evenodd"/><path d="M618.601 1180.43C611.867 1162.99 620.543 1143.39 637.98 1136.66 655.418 1129.93 675.013 1138.6 681.747 1156.04 688.481 1173.48 679.804 1193.07 662.367 1199.81 644.929 1206.54 625.335 1197.86 618.601 1180.43Z" fill="#7F7F7F" fill-rule="evenodd"/><path d="M477.49 1207.47C470.755 1190.03 479.432 1170.44 496.869 1163.7 514.307 1156.97 533.901 1165.65 540.635 1183.08 547.37 1200.52 538.693 1220.12 521.256 1226.85 503.818 1233.58 484.224 1224.91 477.49 1207.47Z" fill="#7F7F7F" fill-rule="evenodd"/><path d="M567.73 1318.56C560.996 1301.12 569.672 1281.53 587.109 1274.79 604.547 1268.06 624.141 1276.73 630.875 1294.17 637.61 1311.61 628.933 1331.2 611.496 1337.94 594.058 1344.67 574.464 1336 567.73 1318.56Z" fill="#7F7F7F" fill-rule="evenodd"/><path d="M744.637 1189.08C737.903 1171.64 746.579 1152.05 764.017 1145.32 781.454 1138.58 801.049 1147.26 807.783 1164.7 814.517 1182.13 805.84 1201.73 788.403 1208.46 770.966 1215.2 751.371 1206.52 744.637 1189.08Z" fill="#7F7F7F" fill-rule="evenodd"/><path d="M727.212 1312.76C720.478 1295.33 729.155 1275.73 746.592 1269 764.029 1262.26 783.624 1270.94 790.358 1288.38 797.092 1305.81 788.415 1325.41 770.978 1332.14 753.541 1338.88 733.946 1330.2 727.212 1312.76Z" fill="#7F7F7F" fill-rule="evenodd"/><path d="M573.273 2082.1C566.352 2064.18 575.27 2044.04 593.191 2037.12 611.113 2030.2 631.251 2039.12 638.172 2057.04 645.093 2074.96 636.176 2095.1 618.254 2102.02 600.333 2108.94 580.194 2100.03 573.273 2082.1Z" fill="#7F7F7F" fill-rule="evenodd"/><path d="M618.364 2197.69C611.63 2180.25 620.306 2160.66 637.744 2153.92 655.181 2147.19 674.776 2155.87 681.51 2173.3 688.244 2190.74 679.567 2210.34 662.13 2217.07 644.693 2223.8 625.098 2215.13 618.364 2197.69Z" fill="#7F7F7F" fill-rule="evenodd"/><path d="M477.253 2224.73C470.519 2207.3 479.195 2187.7 496.632 2180.97 514.07 2174.23 533.664 2182.91 540.398 2200.35 547.133 2217.79 538.456 2237.38 521.019 2244.11 503.581 2250.85 483.987 2242.17 477.253 2224.73Z" fill="#7F7F7F" fill-rule="evenodd"/><path d="M567.493 2335.82C560.759 2318.39 569.435 2298.79 586.872 2292.06 604.31 2285.32 623.904 2294 630.638 2311.44 637.373 2328.87 628.696 2348.47 611.259 2355.2 593.821 2361.94 574.227 2353.26 567.493 2335.82Z" fill="#7F7F7F" fill-rule="evenodd"/><path d="M744.4 2206.35C737.666 2188.91 746.342 2169.31 763.78 2162.58 781.217 2155.85 800.812 2164.52 807.546 2181.96 814.28 2199.4 805.603 2218.99 788.166 2225.73 770.729 2232.46 751.134 2223.78 744.4 2206.35Z" fill="#7F7F7F" fill-rule="evenodd"/><path d="M726.975 2330.03C720.241 2312.59 728.918 2293 746.355 2286.26 763.792 2279.53 783.387 2288.2 790.121 2305.64 796.855 2323.08 788.178 2342.67 770.741 2349.41 753.304 2356.14 733.709 2347.46 726.975 2330.03Z" fill="#7F7F7F" fill-rule="evenodd"/><path d="M2027.85 1406.58 2012.8 1392.64 1911.72 1501.71 1881.62 1473.81 1982.7 1364.74 1967.65 1350.8 2025.64 1348.59Z" fill="#7C96EB" fill-rule="evenodd"/><path d="M1963.73 1997.69 1977.73 1982.68 1868.98 1881.27 1896.96 1851.26 2005.71 1952.67 2019.71 1937.66 2021.73 1995.66Z" fill="#7C96EB" fill-rule="evenodd"/></g></svg>